<svg xmlns="http://www.w3.org/2000/svg" xmlns:xlink="http://www.w3.org/1999/xlink" width="500" zoomAndPan="magnify" viewBox="0 0 375 374.999991" height="500" preserveAspectRatio="xMidYMid meet" version="1.2"><defs><clipPath id="1d810b3ac6"><path d="M 115 37.5 L 260 37.5 L 260 216 L 115 216 Z M 115 37.5 "/></clipPath></defs><g id="5aa0cbd3a5"><path style=" stroke:none;fill-rule:nonzero;fill:#001d61;fill-opacity:1;" d="M 239.628906 246.847656 C 237.664062 247.703125 235.847656 247.683594 233.832031 247.019531 C 226.296875 244.535156 218.730469 242.164062 211.171875 239.765625 C 209.949219 239.375 208.726562 239.1875 207.519531 239.234375 C 206.667969 239.265625 206.070312 239.835938 205.859375 240.527344 C 212.535156 245.5 219.167969 250.207031 224.792969 254.171875 C 228.246094 256.601562 230.128906 259.8125 230.105469 263.203125 C 230.074219 266.578125 228.152344 269.722656 224.691406 272.078125 C 222.507812 273.558594 219.945312 274.398438 216.851562 274.640625 L 216.378906 274.679688 L 215.917969 274.609375 C 215.691406 274.570312 215.464844 274.539062 215.238281 274.5 C 213.757812 274.28125 212.085938 274.035156 210.324219 273.285156 C 206.972656 271.859375 203.597656 270.449219 200.242188 269.039062 C 194.382812 266.585938 188.335938 264.042969 182.398438 261.457031 C 181.851562 261.222656 181.609375 261.199219 181.546875 261.199219 C 181.433594 261.199219 181.121094 261.347656 180.605469 261.753906 C 166.480469 273.019531 152.074219 284.410156 138.132812 295.4375 L 128.199219 303.292969 C 127.332031 303.976562 126.484375 304.648438 125.550781 305.113281 C 124.464844 307.320312 124.753906 309.789062 126.46875 311.972656 C 128.851562 315.011719 132.75 315.585938 135.898438 313.15625 C 143.828125 307.039062 151.691406 300.820312 159.582031 294.632812 C 166.199219 289.453125 172.796875 284.25 179.429688 279.082031 C 180.339844 278.382812 181.386719 277 182.546875 278.472656 C 183.792969 280.046875 182.171875 280.773438 181.199219 281.542969 C 169.191406 290.980469 157.167969 300.386719 145.175781 309.820312 C 141.546875 312.671875 140.96875 316.738281 143.679688 319.886719 C 146.175781 322.777344 149.945312 323.152344 153.1875 320.660156 C 159.359375 315.914062 165.457031 311.082031 171.589844 306.277344 C 177.480469 301.65625 183.355469 297.035156 189.246094 292.421875 C 189.792969 292 190.34375 291.558594 190.945312 291.230469 C 191.695312 290.808594 192.425781 290.863281 192.988281 291.621094 C 193.570312 292.414062 193.304688 293.085938 192.636719 293.628906 C 190.414062 295.4375 188.203125 297.230469 185.964844 298.996094 C 178.035156 305.253906 170.101562 311.503906 162.164062 317.753906 C 159.917969 319.519531 158.804688 321.765625 159.414062 324.640625 C 159.972656 327.28125 161.671875 328.964844 164.203125 329.796875 C 166.363281 330.515625 168.347656 330 170.078125 328.660156 C 171.738281 327.367188 183.128906 317.371094 183.902344 316.746094 C 183.871094 316.382812 183.863281 316.015625 183.886719 315.625 C 183.980469 310.492188 187.578125 306.183594 192.683594 305.128906 C 193.359375 304.988281 194.046875 304.917969 194.730469 304.917969 C 196.089844 304.917969 197.40625 305.191406 198.628906 305.699219 C 199.429688 301.40625 202.75 297.929688 207.082031 297.121094 C 207.769531 296.988281 208.46875 296.917969 209.15625 296.917969 C 211.671875 296.917969 214.007812 297.765625 215.855469 299.261719 C 217.171875 296.847656 219.480469 294.9375 222.449219 294.050781 C 223.375 293.777344 224.355469 293.628906 225.347656 293.628906 C 227.777344 293.628906 230.113281 294.488281 231.96875 295.929688 C 233.175781 293.910156 235.015625 292.242188 237.359375 291.269531 C 238.753906 290.683594 240.234375 290.386719 241.738281 290.386719 C 246.359375 290.386719 250.496094 293.144531 252.273438 297.410156 L 252.515625 297.992188 C 258.945312 294.332031 273.046875 286.085938 273.046875 286.085938 L 249.148438 243.265625 C 249.148438 243.265625 242.160156 245.726562 239.628906 246.847656 "/><path style=" stroke:none;fill-rule:nonzero;fill:#001d61;fill-opacity:1;" d="M 178.128906 258.644531 C 180.066406 257.101562 181.679688 256.804688 183.996094 257.820312 C 193.242188 261.847656 202.585938 265.679688 211.882812 269.625 C 213.402344 270.269531 215 270.433594 216.535156 270.675781 C 218.691406 270.511719 220.6875 269.988281 222.457031 268.789062 C 227.355469 265.453125 227.324219 260.828125 222.503906 257.421875 C 215.949219 252.800781 209.410156 248.148438 202.992188 243.347656 C 200.359375 241.386719 197.613281 239.84375 194.476562 238.871094 C 187.703125 236.78125 180.972656 234.566406 174.238281 232.347656 C 172.214844 231.683594 170.382812 231.824219 168.457031 232.769531 C 158.976562 237.414062 149.429688 241.929688 139.957031 246.582031 C 138.007812 247.550781 136.425781 247.394531 134.269531 246.839844 C 131.324219 246.101562 125.558594 243.433594 125.558594 243.433594 L 101.261719 286.695312 C 101.261719 286.695312 113.941406 295.90625 119.949219 300.238281 C 122.847656 302.332031 122.992188 302.339844 125.730469 300.175781 C 143.207031 286.34375 160.707031 272.539062 178.128906 258.644531 "/><path style=" stroke:none;fill-rule:nonzero;fill:#001d61;fill-opacity:1;" d="M 201.128906 313.601562 C 199.882812 310.234375 196.609375 308.378906 193.492188 309.027344 C 190.214844 309.703125 187.875 312.46875 187.859375 315.796875 C 187.789062 316.628906 188.03125 317.527344 188.335938 318.398438 C 189.792969 322.613281 191.21875 326.835938 192.722656 331.03125 C 194.242188 335.277344 197.980469 337.183594 201.800781 335.75 C 205.53125 334.355469 207.027344 330.679688 205.578125 326.449219 C 204.105469 322.164062 202.710938 317.847656 201.128906 313.601562 "/><path style=" stroke:none;fill-rule:nonzero;fill:#001d61;fill-opacity:1;" d="M 215.550781 305.441406 C 214.335938 302.136719 211.140625 300.394531 207.816406 301.023438 C 204.730469 301.609375 202.453125 304.382812 202.414062 307.632812 C 202.398438 308.730469 202.65625 309.757812 203.015625 310.792969 C 204.457031 314.933594 205.851562 319.09375 207.316406 323.222656 C 208.703125 327.15625 212.355469 329.011719 216.136719 327.765625 C 219.671875 326.613281 221.488281 322.777344 220.21875 318.960938 C 218.714844 314.441406 217.1875 309.921875 215.550781 305.441406 "/><path style=" stroke:none;fill-rule:nonzero;fill:#001d61;fill-opacity:1;" d="M 231.453125 301.585938 C 230.183594 298.523438 226.59375 296.964844 223.585938 297.859375 C 220.171875 298.882812 218.023438 302.019531 218.738281 305.511719 C 219.480469 309.136719 220.757812 312.640625 222.347656 315.976562 C 223.460938 318.304688 225.554688 319.4375 228.191406 319.4375 C 232.640625 319.445312 235.957031 315.460938 234.804688 311.160156 C 233.925781 307.902344 232.75 304.710938 231.453125 301.585938 "/><path style=" stroke:none;fill-rule:nonzero;fill:#001d61;fill-opacity:1;" d="M 186.449219 319.800781 C 183.917969 321.859375 181.601562 323.527344 179.539062 325.457031 C 177.015625 327.828125 176.90625 331.550781 179.03125 334.261719 C 180.902344 336.664062 185.164062 337.457031 187.828125 335.898438 C 191.210938 333.929688 191.34375 333.609375 190.066406 329.953125 C 188.933594 326.707031 187.757812 323.480469 186.449219 319.800781 "/><path style=" stroke:none;fill-rule:nonzero;fill:#001d61;fill-opacity:1;" d="M 248.597656 298.9375 C 247.023438 295.148438 242.675781 293.355469 238.886719 294.9375 C 235.101562 296.511719 233.308594 300.859375 234.882812 304.648438 L 236.363281 308.191406 C 237.9375 311.980469 242.285156 313.769531 246.070312 312.1875 C 249.859375 310.609375 251.652344 306.261719 250.078125 302.480469 L 248.597656 298.9375 "/><path style=" stroke:none;fill-rule:nonzero;fill:#001d61;fill-opacity:1;" d="M 72.066406 266.777344 C 67.679688 266.777344 64.121094 263.21875 64.121094 258.824219 C 64.121094 254.429688 67.679688 250.867188 72.066406 250.867188 C 76.460938 250.867188 80.023438 254.429688 80.023438 258.824219 C 80.023438 263.21875 76.460938 266.777344 72.066406 266.777344 Z M 117.921875 228.894531 L 89.046875 212.890625 C 85.101562 210.710938 80.140625 212.136719 77.949219 216.078125 L 54.847656 257.78125 C 52.664062 261.722656 54.089844 266.6875 58.035156 268.867188 L 86.917969 284.871094 C 90.851562 287.054688 95.824219 285.628906 98.003906 281.683594 L 121.109375 239.984375 C 123.289062 236.039062 121.863281 231.078125 117.921875 228.894531 "/><path style=" stroke:none;fill-rule:nonzero;fill:#001d61;fill-opacity:1;" d="M 302.726562 266.777344 C 298.339844 266.777344 294.777344 263.21875 294.777344 258.824219 C 294.777344 254.429688 298.339844 250.867188 302.726562 250.867188 C 307.121094 250.867188 310.679688 254.429688 310.679688 258.824219 C 310.679688 263.21875 307.121094 266.777344 302.726562 266.777344 Z M 319.945312 257.78125 L 296.851562 216.078125 C 294.660156 212.136719 289.699219 210.710938 285.761719 212.890625 L 256.878906 228.894531 C 252.9375 231.078125 251.511719 236.039062 253.691406 239.984375 L 276.792969 281.683594 C 278.976562 285.628906 283.941406 287.054688 287.882812 284.871094 L 316.765625 268.867188 C 320.707031 266.6875 322.132812 261.722656 319.945312 257.78125 "/><path style=" stroke:none;fill-rule:nonzero;fill:#001d61;fill-opacity:1;" d="M 142.410156 78.25 L 232.601562 78.25 C 233.574219 78.25 234.359375 77.464844 234.359375 76.488281 L 234.359375 67.03125 C 234.359375 66.0625 233.574219 65.277344 232.601562 65.277344 L 142.410156 65.277344 C 141.4375 65.277344 140.648438 66.0625 140.648438 67.03125 L 140.648438 76.488281 C 140.648438 77.464844 141.4375 78.25 142.410156 78.25 "/><path style=" stroke:none;fill-rule:nonzero;fill:#001d61;fill-opacity:1;" d="M 140.648438 103.878906 C 140.648438 104.851562 141.4375 105.636719 142.410156 105.636719 L 232.601562 105.636719 C 233.574219 105.636719 234.359375 104.851562 234.359375 103.878906 L 234.359375 94.425781 C 234.359375 93.453125 233.574219 92.664062 232.601562 92.664062 L 142.410156 92.664062 C 141.4375 92.664062 140.648438 93.453125 140.648438 94.425781 L 140.648438 103.878906 "/><path style=" stroke:none;fill-rule:nonzero;fill:#001d61;fill-opacity:1;" d="M 232.601562 133.035156 C 233.574219 133.035156 234.359375 132.246094 234.359375 131.273438 L 234.359375 121.820312 C 234.359375 120.847656 233.574219 120.0625 232.601562 120.0625 L 142.417969 120.0625 C 141.445312 120.0625 140.65625 120.847656 140.65625 121.820312 L 140.65625 129.511719 L 142.933594 133.035156 L 232.601562 133.035156 "/><path style=" stroke:none;fill-rule:nonzero;fill:#001d61;fill-opacity:1;" d="M 234.359375 158.667969 L 234.359375 149.21875 C 234.359375 148.242188 233.574219 147.449219 232.601562 147.449219 L 152.195312 147.449219 L 160.480469 160.429688 L 232.601562 160.429688 C 233.574219 160.429688 234.359375 159.636719 234.359375 158.667969 "/><path style=" stroke:none;fill-rule:nonzero;fill:#001d61;fill-opacity:1;" d="M 129.75 169.695312 L 148.816406 157.429688 L 94.40625 72.859375 L 75.339844 85.128906 L 129.75 169.695312 "/><g clip-rule="nonzero" clip-path="url(#1d810b3ac6)"><path style=" stroke:none;fill-rule:nonzero;fill:#001d61;fill-opacity:1;" d="M 127.21875 49.671875 L 247.785156 49.671875 L 247.785156 203.425781 L 127.21875 203.425781 L 127.21875 180.992188 L 125.019531 177.578125 L 120.4375 170.472656 L 115.0625 162.097656 L 115.0625 207.039062 C 115.0625 211.753906 118.886719 215.59375 123.601562 215.59375 L 251.402344 215.59375 C 256.117188 215.59375 259.957031 211.753906 259.957031 207.039062 L 259.957031 46.054688 C 259.957031 41.339844 256.117188 37.5 251.402344 37.5 L 123.601562 37.5 C 118.886719 37.5 115.0625 41.339844 115.0625 46.054688 L 115.0625 89.726562 L 127.21875 108.613281 L 127.21875 49.671875 "/></g><path style=" stroke:none;fill-rule:nonzero;fill:#001d61;fill-opacity:1;" d="M 157.597656 194.285156 C 158.617188 195.148438 160.019531 194.253906 159.660156 192.960938 L 150.640625 160.84375 L 132.101562 172.773438 L 157.597656 194.285156 "/><path style=" stroke:none;fill-rule:nonzero;fill:#001d61;fill-opacity:1;" d="M 86.714844 121.441406 C 87.332031 122.390625 88.539062 122.710938 89.417969 122.140625 C 90.292969 121.582031 90.511719 120.347656 89.894531 119.390625 L 62.617188 77.003906 C 62.351562 76.582031 62.445312 76.046875 62.828125 75.796875 L 67.429688 72.84375 L 72.980469 81.46875 L 92.046875 69.203125 L 79.796875 50.152344 C 79.203125 49.234375 78.035156 48.929688 77.1875 49.476562 L 61.191406 59.769531 C 60.339844 60.3125 60.136719 61.507812 60.730469 62.425781 L 65.210938 69.382812 L 59.070312 73.335938 C 57.777344 74.167969 57.464844 75.976562 58.371094 77.378906 L 86.714844 121.441406 "/><path style=" stroke:none;fill-rule:nonzero;fill:#001d61;fill-opacity:1;" d="M 201.636719 184.625 C 201.425781 186.3125 201.082031 189.148438 200.5 189.617188 C 200.117188 189.554688 198.792969 188.417969 198.003906 187.730469 C 195.753906 185.792969 192.675781 183.144531 188.390625 183.539062 C 185.5 183.8125 183.808594 185.324219 182.445312 186.539062 C 181.410156 187.46875 180.589844 188.191406 179.289062 188.511719 C 175.339844 189.476562 170.328125 185.613281 166.824219 182.199219 L 163.371094 185.738281 C 169.859375 192.0625 175.457031 194.542969 180.464844 193.320312 C 182.964844 192.703125 184.5 191.332031 185.734375 190.234375 C 186.949219 189.148438 187.640625 188.582031 188.855469 188.464844 C 191.054688 188.277344 192.855469 189.820312 194.769531 191.480469 C 196.453125 192.929688 198.324219 194.550781 200.558594 194.550781 C 201.042969 194.550781 201.535156 194.472656 202.039062 194.308594 C 205.570312 193.1875 206.070312 189.140625 206.542969 185.222656 C 206.917969 182.207031 207.332031 178.789062 209.015625 177.710938 C 210.089844 177.019531 213.71875 176.191406 224.128906 183.476562 L 226.972656 179.425781 C 217.242188 172.617188 210.683594 170.753906 206.335938 173.542969 C 202.703125 175.882812 202.109375 180.726562 201.636719 184.625 "/></g></svg>