<svg xmlns="http://www.w3.org/2000/svg" xmlns:xlink="http://www.w3.org/1999/xlink" width="500" zoomAndPan="magnify" viewBox="0 0 375 374.999991" height="500" preserveAspectRatio="xMidYMid meet" version="1.2"><defs><clipPath id="3566516bd8"><path d="M 41.25 37.5 L 333.75 37.5 L 333.75 337.5 L 41.25 337.5 Z M 41.25 37.5 "/></clipPath></defs><g id="9ce59b1ae1"><g clip-rule="nonzero" clip-path="url(#3566516bd8)"><path style=" stroke:none;fill-rule:nonzero;fill:#001d61;fill-opacity:1;" d="M 318.105469 42.539062 L 184.390625 42.539062 C 182.332031 39.5 178.851562 37.5 174.921875 37.5 L 91.363281 37.5 C 91.210938 37.5 91.054688 37.507812 90.902344 37.523438 C 90.824219 37.53125 90.746094 37.546875 90.667969 37.558594 C 90.597656 37.566406 90.523438 37.574219 90.453125 37.589844 C 90.359375 37.609375 90.265625 37.632812 90.171875 37.660156 C 90.121094 37.671875 90.066406 37.683594 90.015625 37.699219 C 89.921875 37.726562 89.828125 37.761719 89.734375 37.796875 C 89.6875 37.8125 89.636719 37.828125 89.589844 37.847656 C 89.5 37.886719 89.414062 37.925781 89.328125 37.96875 C 89.277344 37.992188 89.226562 38.015625 89.179688 38.039062 C 89.097656 38.082031 89.023438 38.128906 88.945312 38.175781 C 88.890625 38.207031 88.839844 38.238281 88.789062 38.269531 C 88.71875 38.316406 88.648438 38.367188 88.582031 38.417969 C 88.527344 38.457031 88.472656 38.496094 88.421875 38.539062 C 88.355469 38.589844 88.296875 38.640625 88.238281 38.695312 C 88.195312 38.730469 88.15625 38.761719 88.117188 38.800781 L 61.933594 63.761719 C 61.003906 64.648438 60.476562 65.878906 60.476562 67.164062 L 60.476562 161.167969 L 56.160156 161.167969 C 48.042969 161.167969 41.4375 167.773438 41.4375 175.894531 L 41.4375 269.175781 C 41.4375 274.726562 44.613281 279.726562 49.371094 282.222656 L 49.371094 282.625 C 49.371094 289.878906 50.238281 307.832031 58.054688 321.210938 L 58.054688 332.792969 C 58.054688 335.394531 60.160156 337.5 62.761719 337.5 L 115.828125 337.5 C 118.425781 337.5 120.53125 335.394531 120.53125 332.792969 L 120.53125 322.996094 C 120.535156 322.949219 120.546875 322.902344 120.546875 322.855469 C 120.824219 312.363281 123.765625 308.25 130.21875 299.246094 C 133.109375 295.210938 136.554688 290.398438 140.554688 283.898438 L 164.140625 283.898438 C 168.144531 290.398438 171.589844 295.210938 174.480469 299.246094 C 180.933594 308.253906 183.878906 312.367188 184.152344 322.867188 L 184.164062 322.867188 C 184.164062 322.867188 184.164062 332.792969 184.164062 332.792969 C 184.164062 335.394531 186.273438 337.5 188.871094 337.5 L 241.9375 337.5 C 244.535156 337.5 246.644531 335.394531 246.644531 332.792969 L 246.644531 321.210938 C 254.457031 307.832031 255.324219 289.878906 255.324219 282.625 L 255.324219 282.222656 C 260.082031 279.726562 263.261719 274.726562 263.261719 269.175781 L 263.261719 262.058594 L 274.757812 262.058594 C 281.785156 262.058594 287.503906 256.339844 287.503906 249.3125 L 287.503906 239.328125 C 287.503906 237.492188 289 235.996094 290.835938 235.996094 L 298.914062 235.996094 C 305.941406 235.996094 311.65625 230.277344 311.65625 223.25 L 311.65625 202.871094 L 318.105469 202.871094 C 326.628906 202.871094 333.5625 195.9375 333.5625 187.417969 L 333.5625 57.996094 C 333.5625 49.472656 326.625 42.539062 318.105469 42.539062 Z M 324.148438 57.996094 L 324.148438 175.460938 L 263.25 175.460938 C 263.019531 167.539062 256.511719 161.167969 248.539062 161.167969 L 186.382812 161.167969 L 186.503906 127.839844 L 212.996094 127.839844 C 212.996094 127.839844 212.996094 133.414062 212.996094 133.414062 C 212.996094 136.296875 214.605469 138.882812 217.203125 140.160156 C 218.253906 140.675781 219.378906 140.929688 220.5 140.929688 C 222.121094 140.929688 223.730469 140.394531 225.082031 139.351562 L 252.007812 118.546875 C 253.859375 117.113281 254.921875 114.949219 254.921875 112.613281 C 254.921875 110.273438 253.859375 108.109375 252.007812 106.675781 L 225.082031 85.871094 C 222.800781 84.105469 219.78125 83.796875 217.203125 85.0625 C 214.605469 86.339844 212.996094 88.921875 212.996094 91.804688 L 212.996094 97.382812 L 186.503906 97.382812 L 186.371094 51.953125 L 318.105469 51.953125 C 321.4375 51.953125 324.152344 54.664062 324.152344 57.996094 Z M 263.261719 205.058594 L 271.09375 218.5 L 263.261719 218.5 Z M 217.703125 106.796875 C 220.300781 106.796875 222.410156 104.6875 222.410156 102.089844 L 222.410156 95.699219 L 244.296875 112.613281 L 222.410156 129.523438 L 222.410156 123.132812 C 222.410156 121.886719 221.914062 120.6875 221.03125 119.804688 C 220.148438 118.921875 218.949219 118.425781 217.703125 118.425781 L 176.339844 118.425781 C 176.339844 118.425781 176.339844 106.796875 176.339844 106.796875 Z M 86.660156 53.195312 L 86.660156 62.242188 C 86.660156 63.023438 86 63.683594 85.21875 63.683594 L 75.65625 63.683594 Z M 69.890625 73.09375 L 85.21875 73.09375 C 91.203125 73.09375 96.070312 68.226562 96.070312 62.242188 L 96.070312 46.910156 L 174.921875 46.910156 C 176.019531 46.910156 176.949219 47.847656 176.953125 48.957031 L 177.089844 97.382812 L 175.292969 97.382812 C 170.679688 97.382812 166.925781 101.136719 166.925781 105.75 L 166.925781 119.472656 C 166.925781 121.703125 167.796875 123.804688 169.378906 125.386719 C 170.960938 126.96875 173.0625 127.839844 175.292969 127.839844 L 177.089844 127.839844 L 176.96875 161.167969 L 69.890625 161.167969 Z M 56.160156 170.582031 L 248.539062 170.582031 C 251.46875 170.582031 253.851562 172.964844 253.851562 175.894531 L 253.851562 265.085938 C 251.769531 261.253906 247.710938 258.644531 243.050781 258.644531 C 241.179688 258.644531 239.402344 259.066406 237.8125 259.820312 C 235.578125 256.773438 231.972656 254.796875 227.914062 254.796875 C 225.835938 254.796875 223.878906 255.316406 222.160156 256.234375 C 219.90625 253.566406 216.535156 251.867188 212.777344 251.867188 C 211.792969 251.867188 210.835938 251.984375 209.914062 252.207031 L 209.914062 229.105469 C 209.898438 222.351562 204.394531 216.859375 197.640625 216.859375 C 190.890625 216.859375 185.367188 222.367188 185.367188 229.136719 L 185.367188 263.226562 L 180.230469 256.675781 C 174.351562 249.167969 167.46875 249.730469 163.363281 252.496094 C 157.863281 256.195312 155.105469 265.074219 158.914062 274.488281 L 145.785156 274.488281 C 149.597656 265.074219 146.835938 256.195312 141.335938 252.496094 C 137.230469 249.730469 130.351562 249.167969 124.46875 256.675781 L 119.332031 263.226562 L 119.332031 229.132812 C 119.332031 222.367188 113.828125 216.859375 107.058594 216.859375 C 100.289062 216.859375 94.800781 222.351562 94.785156 229.117188 L 94.785156 252.207031 C 93.867188 251.984375 92.90625 251.867188 91.921875 251.867188 C 88.164062 251.867188 84.792969 253.566406 82.539062 256.234375 C 80.820312 255.316406 78.863281 254.796875 76.785156 254.796875 C 72.726562 254.796875 69.121094 256.773438 66.886719 259.820312 C 65.296875 259.066406 63.519531 258.644531 61.648438 258.644531 C 56.988281 258.644531 52.925781 261.253906 50.847656 265.085938 L 50.847656 175.890625 C 50.847656 172.964844 53.230469 170.578125 56.160156 170.578125 Z M 111.121094 328.089844 L 67.46875 328.089844 L 67.46875 324.632812 L 111.121094 324.632812 Z M 122.566406 293.765625 C 117.078125 301.425781 113.324219 306.679688 111.832031 315.222656 L 65.488281 315.222656 C 59.46875 303.960938 58.785156 288.867188 58.785156 282.625 L 58.785156 279.019531 C 58.785156 279.011719 58.785156 279.003906 58.785156 278.992188 L 58.785156 270.917969 C 58.785156 269.367188 60.097656 268.054688 61.648438 268.054688 C 63.199219 268.054688 64.511719 269.367188 64.511719 270.917969 C 64.511719 273.515625 66.617188 275.625 69.214844 275.625 C 71.816406 275.625 73.921875 273.515625 73.921875 270.917969 L 73.921875 267.070312 C 73.921875 265.519531 75.234375 264.207031 76.785156 264.207031 C 78.355469 264.207031 79.640625 265.484375 79.648438 267.058594 C 79.660156 269.648438 81.761719 271.742188 84.351562 271.742188 L 84.363281 271.742188 C 86.957031 271.738281 89.058594 269.632812 89.058594 267.039062 L 89.058594 264.140625 C 89.058594 262.589844 90.371094 261.28125 91.921875 261.28125 C 93.472656 261.28125 94.785156 262.589844 94.785156 264.140625 L 94.785156 268.800781 C 94.785156 271.398438 96.890625 273.507812 99.492188 273.507812 C 102.089844 273.507812 104.195312 271.398438 104.195312 268.800781 L 104.195312 229.128906 C 104.199219 227.578125 105.511719 226.273438 107.058594 226.273438 C 108.605469 226.273438 109.921875 227.582031 109.921875 229.132812 L 109.921875 276.859375 C 109.921875 278.867188 111.195312 280.652344 113.089844 281.308594 C 114.988281 281.964844 117.09375 281.34375 118.332031 279.761719 L 131.875 262.480469 C 132.648438 261.492188 134.601562 259.308594 136.082031 260.300781 C 137.855469 261.496094 139.714844 266.65625 135.980469 273.175781 C 130.648438 282.488281 126.167969 288.742188 122.566406 293.765625 Z M 182.132812 293.765625 C 178.53125 288.742188 174.050781 282.488281 168.71875 273.175781 C 164.984375 266.65625 166.84375 261.496094 168.617188 260.300781 C 170.097656 259.304688 172.050781 261.492188 172.824219 262.480469 L 186.367188 279.761719 C 187.605469 281.339844 189.710938 281.960938 191.609375 281.308594 C 193.503906 280.652344 194.777344 278.867188 194.777344 276.859375 L 194.777344 229.132812 C 194.777344 227.582031 196.089844 226.269531 197.640625 226.269531 C 199.191406 226.269531 200.5 227.578125 200.503906 229.113281 L 200.503906 249.59375 C 200.503906 249.59375 200.503906 249.597656 200.503906 249.597656 L 200.503906 268.800781 C 200.503906 271.398438 202.609375 273.507812 205.210938 273.507812 C 207.808594 273.507812 209.914062 271.398438 209.914062 268.800781 L 209.914062 264.148438 C 209.914062 264.148438 209.914062 264.144531 209.914062 264.140625 C 209.914062 262.589844 211.226562 261.28125 212.777344 261.28125 C 214.328125 261.28125 215.640625 262.589844 215.640625 264.140625 L 215.640625 267.039062 C 215.640625 269.632812 217.742188 271.738281 220.335938 271.742188 L 220.347656 271.742188 C 222.9375 271.742188 225.042969 269.648438 225.050781 267.058594 C 225.058594 265.484375 226.34375 264.207031 227.914062 264.207031 C 229.464844 264.207031 230.777344 265.519531 230.777344 267.070312 L 230.777344 270.917969 C 230.777344 273.515625 232.882812 275.625 235.484375 275.625 C 238.082031 275.625 240.1875 273.515625 240.1875 270.917969 C 240.1875 269.367188 241.5 268.054688 243.050781 268.054688 C 244.605469 268.054688 245.914062 269.367188 245.914062 270.917969 L 245.914062 278.992188 C 245.914062 279 245.914062 279.007812 245.914062 279.019531 L 245.914062 282.621094 C 245.914062 288.867188 245.230469 303.960938 239.214844 315.222656 L 192.867188 315.222656 C 191.378906 306.679688 187.621094 301.425781 182.132812 293.765625 Z M 237.230469 328.089844 L 193.578125 328.089844 L 193.578125 324.632812 L 237.230469 324.632812 Z M 302.246094 223.25 C 302.246094 225.085938 300.753906 226.582031 298.914062 226.582031 L 290.839844 226.582031 C 283.808594 226.582031 278.09375 232.300781 278.09375 239.328125 L 278.09375 249.3125 C 278.09375 251.148438 276.597656 252.644531 274.757812 252.644531 L 263.261719 252.644531 L 263.261719 227.910156 L 276.375 227.910156 C 278.652344 227.910156 280.777344 226.675781 281.921875 224.691406 C 283.0625 222.703125 283.050781 220.324219 281.882812 218.324219 L 272.878906 202.871094 L 302.246094 202.871094 Z M 318.105469 193.460938 L 263.261719 193.460938 L 263.261719 184.871094 L 324.148438 184.871094 L 324.148438 187.414062 C 324.148438 190.75 321.4375 193.460938 318.105469 193.460938 Z M 165.167969 149.550781 C 165.167969 152.152344 163.058594 154.257812 160.460938 154.257812 L 86.378906 154.257812 C 83.78125 154.257812 81.675781 152.152344 81.675781 149.550781 C 81.675781 146.953125 83.78125 144.847656 86.378906 144.847656 L 160.460938 144.847656 C 163.058594 144.847656 165.167969 146.953125 165.167969 149.550781 Z M 165.167969 66.808594 C 165.167969 69.40625 163.058594 71.511719 160.460938 71.511719 L 103.84375 71.511719 C 101.246094 71.511719 99.140625 69.40625 99.140625 66.808594 C 99.140625 64.207031 101.246094 62.101562 103.84375 62.101562 L 160.460938 62.101562 C 163.058594 62.101562 165.167969 64.207031 165.167969 66.808594 Z M 165.167969 108.179688 C 165.167969 110.777344 163.058594 112.886719 160.460938 112.886719 L 86.378906 112.886719 C 83.78125 112.886719 81.675781 110.777344 81.675781 108.179688 C 81.675781 105.582031 83.78125 103.472656 86.378906 103.472656 L 160.460938 103.472656 C 163.058594 103.472656 165.167969 105.582031 165.167969 108.179688 Z M 165.167969 128.867188 C 165.167969 131.464844 163.058594 133.570312 160.460938 133.570312 L 86.378906 133.570312 C 83.78125 133.570312 81.675781 131.464844 81.675781 128.867188 C 81.675781 126.265625 83.78125 124.160156 86.378906 124.160156 L 160.460938 124.160156 C 163.058594 124.160156 165.167969 126.265625 165.167969 128.867188 Z M 165.167969 87.492188 C 165.167969 90.089844 163.058594 92.199219 160.460938 92.199219 L 86.378906 92.199219 C 83.78125 92.199219 81.675781 90.089844 81.675781 87.492188 C 81.675781 84.894531 83.78125 82.785156 86.378906 82.785156 L 160.460938 82.785156 C 163.058594 82.785156 165.167969 84.894531 165.167969 87.492188 Z M 69.480469 203.363281 L 84.246094 203.363281 C 86.847656 203.363281 88.953125 201.257812 88.953125 198.660156 L 88.953125 183.890625 C 88.953125 181.292969 86.847656 179.183594 84.246094 179.183594 L 69.480469 179.183594 C 66.882812 179.183594 64.773438 181.292969 64.773438 183.890625 L 64.773438 198.660156 C 64.773438 201.257812 66.882812 203.363281 69.480469 203.363281 Z M 74.1875 188.597656 L 79.542969 188.597656 L 79.542969 193.953125 L 74.1875 193.953125 Z M 129.871094 203.363281 L 144.636719 203.363281 C 147.234375 203.363281 149.339844 201.257812 149.339844 198.660156 L 149.339844 183.890625 C 149.339844 181.292969 147.234375 179.183594 144.636719 179.183594 L 129.871094 179.183594 C 127.269531 179.183594 125.164062 181.292969 125.164062 183.890625 L 125.164062 198.660156 C 125.164062 201.257812 127.269531 203.363281 129.871094 203.363281 Z M 134.574219 188.597656 L 139.929688 188.597656 L 139.929688 193.953125 L 134.574219 193.953125 Z M 220.453125 203.363281 L 235.21875 203.363281 C 237.816406 203.363281 239.925781 201.257812 239.925781 198.660156 L 239.925781 183.890625 C 239.925781 181.292969 237.816406 179.183594 235.21875 179.183594 L 220.453125 179.183594 C 217.851562 179.183594 215.746094 181.292969 215.746094 183.890625 L 215.746094 198.660156 C 215.746094 201.257812 217.851562 203.363281 220.453125 203.363281 Z M 225.15625 188.597656 L 230.511719 188.597656 L 230.511719 193.953125 L 225.15625 193.953125 Z M 160.0625 234.621094 L 174.828125 234.621094 C 177.429688 234.621094 179.535156 232.515625 179.535156 229.917969 L 179.535156 215.152344 C 179.535156 212.550781 177.429688 210.445312 174.828125 210.445312 L 160.0625 210.445312 C 157.464844 210.445312 155.359375 212.550781 155.359375 215.152344 L 155.359375 229.917969 C 155.359375 232.515625 157.464844 234.621094 160.0625 234.621094 Z M 164.769531 219.855469 L 170.125 219.855469 L 170.125 225.210938 L 164.769531 225.210938 Z M 129.871094 234.621094 L 144.636719 234.621094 C 147.234375 234.621094 149.339844 232.515625 149.339844 229.917969 L 149.339844 215.152344 C 149.339844 212.550781 147.234375 210.445312 144.636719 210.445312 L 129.871094 210.445312 C 127.269531 210.445312 125.164062 212.550781 125.164062 215.152344 L 125.164062 229.917969 C 125.164062 232.515625 127.269531 234.621094 129.871094 234.621094 Z M 134.574219 219.855469 L 139.929688 219.855469 L 139.929688 225.210938 L 134.574219 225.210938 Z M 99.675781 203.363281 L 114.441406 203.363281 C 117.039062 203.363281 119.148438 201.257812 119.148438 198.660156 L 119.148438 183.890625 C 119.148438 181.292969 117.039062 179.183594 114.441406 179.183594 L 99.675781 179.183594 C 97.078125 179.183594 94.96875 181.292969 94.96875 183.890625 L 94.96875 198.660156 C 94.96875 201.257812 97.078125 203.363281 99.675781 203.363281 Z M 104.382812 188.597656 L 109.734375 188.597656 L 109.734375 193.953125 L 104.382812 193.953125 Z M 190.257812 203.363281 L 205.023438 203.363281 C 207.625 203.363281 209.730469 201.257812 209.730469 198.660156 L 209.730469 183.890625 C 209.730469 181.292969 207.625 179.183594 205.023438 179.183594 L 190.257812 179.183594 C 187.660156 179.183594 185.550781 181.292969 185.550781 183.890625 L 185.550781 198.660156 C 185.550781 201.257812 187.660156 203.363281 190.257812 203.363281 Z M 194.964844 188.597656 L 200.320312 188.597656 L 200.320312 193.953125 L 194.964844 193.953125 Z M 220.453125 234.621094 L 235.21875 234.621094 C 237.816406 234.621094 239.925781 232.515625 239.925781 229.917969 L 239.925781 215.152344 C 239.925781 212.550781 237.816406 210.445312 235.21875 210.445312 L 220.453125 210.445312 C 217.851562 210.445312 215.746094 212.550781 215.746094 215.152344 L 215.746094 229.917969 C 215.746094 232.515625 217.851562 234.621094 220.453125 234.621094 Z M 225.15625 219.855469 L 230.511719 219.855469 L 230.511719 225.210938 L 225.15625 225.210938 Z M 69.480469 234.621094 L 84.246094 234.621094 C 86.847656 234.621094 88.953125 232.515625 88.953125 229.917969 L 88.953125 215.152344 C 88.953125 212.550781 86.847656 210.445312 84.246094 210.445312 L 69.480469 210.445312 C 66.882812 210.445312 64.773438 212.550781 64.773438 215.152344 L 64.773438 229.917969 C 64.773438 232.515625 66.882812 234.621094 69.480469 234.621094 Z M 74.1875 219.855469 L 79.542969 219.855469 L 79.542969 225.210938 L 74.1875 225.210938 Z M 160.0625 203.363281 L 174.828125 203.363281 C 177.429688 203.363281 179.535156 201.257812 179.535156 198.660156 L 179.535156 183.890625 C 179.535156 181.292969 177.429688 179.183594 174.828125 179.183594 L 160.0625 179.183594 C 157.464844 179.183594 155.359375 181.292969 155.359375 183.890625 L 155.359375 198.660156 C 155.359375 201.257812 157.464844 203.363281 160.0625 203.363281 Z M 164.769531 188.597656 L 170.125 188.597656 L 170.125 193.953125 L 164.769531 193.953125 Z M 164.769531 188.597656 "/></g></g></svg>