<svg xmlns="http://www.w3.org/2000/svg" xmlns:xlink="http://www.w3.org/1999/xlink" width="500" zoomAndPan="magnify" viewBox="0 0 375 374.999991" height="500" preserveAspectRatio="xMidYMid meet" version="1.2"><defs><clipPath id="f6c55f262c"><path d="M 37.5 210 L 259 210 L 259 252 L 37.5 252 Z M 37.5 210 "/></clipPath><clipPath id="d347a41375"><path d="M 104 284 L 193 284 L 193 306.75 L 104 306.75 Z M 104 284 "/></clipPath><clipPath id="d75da061f3"><path d="M 137 68.25 L 274 68.25 L 274 204 L 137 204 Z M 137 68.25 "/></clipPath><clipPath id="dc7ac45150"><path d="M 247 178 L 337.5 178 L 337.5 268 L 247 268 Z M 247 178 "/></clipPath><clipPath id="e0251b1a51"><path d="M 37.5 108 L 259 108 L 259 216 L 37.5 216 Z M 37.5 108 "/></clipPath></defs><g id="42042f7647"><g clip-rule="nonzero" clip-path="url(#f6c55f262c)"><path style=" stroke:none;fill-rule:nonzero;fill:#001d61;fill-opacity:1;" d="M 43.59375 216 L 43.59375 237.683594 C 43.59375 241.957031 47.070312 245.433594 51.34375 245.433594 L 244.558594 245.433594 C 248.832031 245.433594 252.308594 241.957031 252.308594 237.683594 L 252.308594 216 Z M 244.558594 251.417969 L 51.34375 251.417969 C 43.769531 251.417969 37.605469 245.253906 37.605469 237.683594 L 37.605469 213.003906 C 37.605469 211.351562 38.945312 210.011719 40.597656 210.011719 L 255.300781 210.011719 C 256.953125 210.011719 258.296875 211.351562 258.296875 213.003906 L 258.296875 237.683594 C 258.296875 245.253906 252.132812 251.417969 244.558594 251.417969 "/></g><path style=" stroke:none;fill-rule:nonzero;fill:#001d61;fill-opacity:1;" d="M 118.589844 284.25 L 178.429688 284.25 L 173.160156 251.417969 L 124.042969 251.417969 Z M 181.941406 290.238281 L 115.058594 290.238281 C 114.179688 290.238281 113.34375 289.847656 112.777344 289.175781 C 112.207031 288.507812 111.960938 287.621094 112.105469 286.753906 L 118.554688 247.933594 C 118.792969 246.488281 120.042969 245.433594 121.507812 245.433594 L 175.710938 245.433594 C 177.179688 245.433594 178.433594 246.496094 178.664062 247.949219 L 184.898438 286.765625 C 185.035156 287.632812 184.789062 288.515625 184.222656 289.183594 C 183.652344 289.851562 182.820312 290.238281 181.941406 290.238281 "/><g clip-rule="nonzero" clip-path="url(#d347a41375)"><path style=" stroke:none;fill-rule:nonzero;fill:#001d61;fill-opacity:1;" d="M 110.847656 300.761719 L 186.371094 300.761719 L 186.371094 290.238281 L 110.847656 290.238281 Z M 189.363281 306.75 L 107.851562 306.75 C 106.199219 306.75 104.859375 305.410156 104.859375 303.757812 L 104.859375 287.242188 C 104.859375 285.589844 106.199219 284.25 107.851562 284.25 L 189.363281 284.25 C 191.015625 284.25 192.359375 285.589844 192.359375 287.242188 L 192.359375 303.757812 C 192.359375 305.410156 191.015625 306.75 189.363281 306.75 "/></g><path style=" stroke:none;fill-rule:nonzero;fill:#001d61;fill-opacity:1;" d="M 192.785156 167.089844 C 192.019531 167.089844 191.257812 166.800781 190.671875 166.222656 C 189.5 165.054688 189.492188 163.164062 190.660156 161.988281 L 254.335938 97.84375 C 255.5 96.667969 257.398438 96.664062 258.570312 97.828125 C 259.746094 98.992188 259.75 100.886719 258.585938 102.058594 L 194.90625 166.207031 C 194.320312 166.796875 193.554688 167.089844 192.785156 167.089844 "/><path style=" stroke:none;fill-rule:nonzero;fill:#001d61;fill-opacity:1;" d="M 183.539062 166.484375 C 182.773438 166.484375 182.007812 166.191406 181.421875 165.605469 L 160.941406 145.128906 C 159.773438 143.957031 159.773438 142.0625 160.941406 140.894531 C 162.109375 139.726562 164.003906 139.726562 165.175781 140.894531 L 185.65625 161.375 C 186.824219 162.542969 186.824219 164.441406 185.65625 165.605469 C 185.070312 166.191406 184.304688 166.484375 183.539062 166.484375 "/><path style=" stroke:none;fill-rule:nonzero;fill:#001d61;fill-opacity:1;" d="M 117.566406 182.011719 C 116.800781 182.011719 116.035156 181.714844 115.449219 181.132812 C 114.28125 179.964844 114.28125 178.070312 115.449219 176.898438 L 151.09375 141.253906 C 152.261719 140.085938 154.15625 140.085938 155.328125 141.253906 C 156.496094 142.425781 156.496094 144.320312 155.328125 145.492188 L 119.683594 181.132812 C 119.097656 181.714844 118.332031 182.011719 117.566406 182.011719 "/><path style=" stroke:none;fill-rule:nonzero;fill:#001d61;fill-opacity:1;" d="M 107.742188 182.589844 C 106.976562 182.589844 106.210938 182.296875 105.628906 181.714844 L 97.652344 173.738281 C 96.484375 172.570312 96.484375 170.675781 97.652344 169.503906 C 98.824219 168.339844 100.71875 168.339844 101.886719 169.503906 L 109.863281 177.480469 C 111.03125 178.648438 111.03125 180.546875 109.863281 181.714844 C 109.277344 182.296875 108.511719 182.589844 107.742188 182.589844 "/><path style=" stroke:none;fill-rule:nonzero;fill:#001d61;fill-opacity:1;" d="M 66.207031 198.023438 C 65.441406 198.023438 64.675781 197.734375 64.089844 197.144531 C 62.921875 195.976562 62.921875 194.082031 64.089844 192.914062 L 87.445312 169.554688 C 88.613281 168.390625 90.511719 168.390625 91.679688 169.554688 C 92.847656 170.726562 92.847656 172.621094 91.679688 173.792969 L 68.324219 197.144531 C 67.738281 197.734375 66.972656 198.023438 66.207031 198.023438 "/><path style=" stroke:none;fill-rule:nonzero;fill:#001d61;fill-opacity:1;" d="M 94.691406 163.300781 C 92.902344 163.300781 91.449219 164.757812 91.449219 166.546875 C 91.449219 168.332031 92.902344 169.785156 94.691406 169.785156 C 96.480469 169.785156 97.933594 168.332031 97.933594 166.546875 C 97.933594 164.757812 96.480469 163.300781 94.691406 163.300781 Z M 94.691406 175.773438 C 89.601562 175.773438 85.460938 171.632812 85.460938 166.546875 C 85.460938 161.457031 89.601562 157.316406 94.691406 157.316406 C 99.78125 157.316406 103.921875 161.457031 103.921875 166.546875 C 103.921875 171.632812 99.78125 175.773438 94.691406 175.773438 "/><path style=" stroke:none;fill-rule:nonzero;fill:#001d61;fill-opacity:1;" d="M 112.261719 180.871094 C 110.472656 180.871094 109.019531 182.328125 109.019531 184.113281 C 109.019531 185.902344 110.472656 187.359375 112.261719 187.359375 C 114.050781 187.359375 115.507812 185.902344 115.507812 184.113281 C 115.507812 182.328125 114.050781 180.871094 112.261719 180.871094 Z M 112.261719 193.347656 C 107.171875 193.347656 103.03125 189.207031 103.03125 184.113281 C 103.03125 179.023438 107.171875 174.886719 112.261719 174.886719 C 117.351562 174.886719 121.492188 179.023438 121.492188 184.113281 C 121.492188 189.207031 117.351562 193.347656 112.261719 193.347656 "/><path style=" stroke:none;fill-rule:nonzero;fill:#001d61;fill-opacity:1;" d="M 157.875 135.261719 C 156.085938 135.261719 154.632812 136.71875 154.632812 138.503906 C 154.632812 140.292969 156.085938 141.75 157.875 141.75 C 159.664062 141.75 161.117188 140.292969 161.117188 138.503906 C 161.117188 136.71875 159.664062 135.261719 157.875 135.261719 Z M 157.875 147.734375 C 152.785156 147.734375 148.644531 143.59375 148.644531 138.503906 C 148.644531 133.414062 152.785156 129.273438 157.875 129.273438 C 162.964844 129.273438 167.105469 133.414062 167.105469 138.503906 C 167.105469 143.59375 162.964844 147.734375 157.875 147.734375 "/><path style=" stroke:none;fill-rule:nonzero;fill:#001d61;fill-opacity:1;" d="M 188.082031 165.46875 C 186.292969 165.46875 184.839844 166.921875 184.839844 168.710938 C 184.839844 170.5 186.292969 171.953125 188.082031 171.953125 C 189.867188 171.953125 191.324219 170.5 191.324219 168.710938 C 191.324219 166.921875 189.867188 165.46875 188.082031 165.46875 Z M 188.082031 177.941406 C 182.992188 177.941406 178.851562 173.800781 178.851562 168.710938 C 178.851562 163.621094 182.992188 159.480469 188.082031 159.480469 C 193.171875 159.480469 197.308594 163.621094 197.308594 168.710938 C 197.308594 173.800781 193.171875 177.941406 188.082031 177.941406 "/><path style=" stroke:none;fill-rule:nonzero;fill:#001d61;fill-opacity:1;" d="M 148.609375 225.253906 C 145.632812 225.253906 143.214844 227.675781 143.214844 230.648438 C 143.214844 233.625 145.632812 236.046875 148.609375 236.046875 C 151.582031 236.046875 154.003906 233.625 154.003906 230.648438 C 154.003906 227.675781 151.582031 225.253906 148.609375 225.253906 Z M 148.609375 242.035156 C 142.332031 242.035156 137.226562 236.925781 137.226562 230.648438 C 137.226562 224.375 142.332031 219.269531 148.609375 219.269531 C 154.882812 219.269531 159.988281 224.375 159.988281 230.648438 C 159.988281 236.925781 154.882812 242.035156 148.609375 242.035156 "/><g clip-rule="nonzero" clip-path="url(#d75da061f3)"><path style=" stroke:none;fill-rule:nonzero;fill:#001d61;fill-opacity:1;" d="M 205.425781 74.230469 C 188.960938 74.230469 173.484375 80.644531 161.84375 92.28125 C 150.203125 103.925781 143.789062 119.402344 143.789062 135.867188 C 143.789062 152.332031 150.203125 167.808594 161.84375 179.453125 C 185.875 203.484375 224.980469 203.484375 249.011719 179.453125 C 260.652344 167.808594 267.0625 152.332031 267.0625 135.867188 C 267.0625 119.402344 260.652344 103.925781 249.011719 92.28125 C 237.371094 80.644531 221.890625 74.230469 205.425781 74.230469 Z M 205.425781 203.492188 C 187.363281 203.492188 170.382812 196.457031 157.609375 183.6875 C 144.835938 170.914062 137.800781 153.929688 137.800781 135.867188 C 137.800781 117.804688 144.835938 100.824219 157.609375 88.050781 C 170.382812 75.277344 187.363281 68.242188 205.425781 68.242188 C 223.488281 68.242188 240.472656 75.277344 253.246094 88.050781 C 266.015625 100.824219 273.050781 117.804688 273.050781 135.867188 C 273.050781 153.929688 266.015625 170.914062 253.246094 183.6875 C 240.472656 196.457031 223.488281 203.492188 205.425781 203.492188 "/></g><g clip-rule="nonzero" clip-path="url(#dc7ac45150)"><path style=" stroke:none;fill-rule:nonzero;fill:#001d61;fill-opacity:1;" d="M 254.785156 201.152344 L 312.882812 259.246094 C 314.546875 260.910156 316.761719 261.828125 319.117188 261.828125 C 321.472656 261.828125 323.6875 260.910156 325.355469 259.246094 L 328.804688 255.796875 C 330.46875 254.128906 331.386719 251.914062 331.386719 249.558594 C 331.386719 247.203125 330.46875 244.984375 328.804688 243.320312 L 270.707031 185.226562 Z M 319.117188 267.816406 C 315.160156 267.816406 311.445312 266.273438 308.644531 263.476562 L 248.433594 203.265625 C 247.265625 202.097656 247.265625 200.203125 248.433594 199.03125 L 268.589844 178.875 C 269.761719 177.707031 271.65625 177.707031 272.828125 178.875 L 333.035156 239.085938 C 335.832031 241.882812 337.375 245.601562 337.375 249.558594 C 337.375 253.515625 335.832031 257.234375 333.035156 260.027344 L 329.589844 263.476562 C 326.792969 266.273438 323.074219 267.816406 319.117188 267.816406 "/></g><path style=" stroke:none;fill-rule:nonzero;fill:#001d61;fill-opacity:1;" d="M 249.980469 186.738281 L 255.351562 192.113281 L 261.671875 185.792969 L 256.296875 180.417969 C 255.3125 181.546875 254.289062 182.640625 253.246094 183.6875 C 252.199219 184.730469 251.109375 185.753906 249.980469 186.738281 Z M 255.351562 199.34375 C 254.585938 199.34375 253.820312 199.050781 253.234375 198.464844 L 243.429688 188.65625 C 242.824219 188.054688 242.507812 187.222656 242.558594 186.367188 C 242.605469 185.519531 243.015625 184.726562 243.683594 184.195312 C 245.558594 182.707031 247.351562 181.113281 249.011719 179.453125 C 250.671875 177.792969 252.265625 176 253.753906 174.125 C 254.285156 173.457031 255.074219 173.046875 255.929688 173 C 256.78125 172.953125 257.613281 173.265625 258.214844 173.871094 L 268.023438 183.675781 C 269.191406 184.847656 269.191406 186.742188 268.023438 187.910156 L 257.46875 198.464844 C 256.886719 199.050781 256.121094 199.34375 255.351562 199.34375 "/><path style=" stroke:none;fill-rule:nonzero;fill:#001d61;fill-opacity:1;" d="M 252.390625 183.257812 C 251.65625 183.257812 250.917969 182.988281 250.339844 182.441406 C 249.714844 181.851562 249.398438 181.058594 249.402344 180.261719 C 249.402344 179.523438 249.671875 178.789062 250.214844 178.210938 L 250.441406 177.96875 C 251.570312 176.761719 253.464844 176.699219 254.667969 177.828125 C 255.875 178.957031 255.941406 180.847656 254.8125 182.058594 L 254.570312 182.316406 C 253.980469 182.945312 253.1875 183.257812 252.390625 183.257812 "/><path style=" stroke:none;fill-rule:nonzero;fill:#001d61;fill-opacity:1;" d="M 254.898438 180.445312 C 254.210938 180.445312 253.523438 180.210938 252.960938 179.730469 C 252.261719 179.140625 251.90625 178.296875 251.90625 177.449219 C 251.90625 176.765625 252.140625 176.078125 252.621094 175.511719 L 252.683594 175.4375 C 253.753906 174.179688 255.644531 174.03125 256.902344 175.105469 C 257.597656 175.695312 257.953125 176.539062 257.953125 177.382812 C 257.953125 178.070312 257.71875 178.757812 257.238281 179.320312 L 257.179688 179.394531 C 256.585938 180.085938 255.746094 180.445312 254.898438 180.445312 "/><g clip-rule="nonzero" clip-path="url(#e0251b1a51)"><path style=" stroke:none;fill-rule:nonzero;fill:#001d61;fill-opacity:1;" d="M 43.59375 210.011719 L 252.308594 210.011719 L 252.308594 207.140625 L 248.433594 203.265625 C 247.875 202.703125 247.558594 201.945312 247.558594 201.152344 C 247.558594 200.355469 247.875 199.59375 248.433594 199.03125 L 251.121094 196.347656 L 245.28125 190.507812 C 233.375 199.21875 219.394531 203.515625 205.460938 203.515625 C 188.070312 203.519531 170.753906 196.828125 157.609375 183.6875 C 147.957031 174.035156 141.519531 161.871094 138.992188 148.511719 C 136.796875 136.933594 137.640625 125.105469 141.40625 114.046875 L 51.34375 114.046875 C 47.070312 114.046875 43.59375 117.523438 43.59375 121.800781 Z M 255.300781 216 L 40.597656 216 C 38.945312 216 37.605469 214.65625 37.605469 213.003906 L 37.605469 121.800781 C 37.605469 114.226562 43.769531 108.0625 51.34375 108.0625 L 145.734375 108.0625 C 146.734375 108.0625 147.667969 108.5625 148.226562 109.394531 C 148.78125 110.226562 148.882812 111.28125 148.5 112.203125 C 143.875 123.339844 142.621094 135.511719 144.875 147.398438 C 147.179688 159.570312 153.046875 170.65625 161.84375 179.453125 C 183.992188 201.597656 219.164062 203.644531 243.664062 184.214844 C 243.734375 184.15625 243.808594 184.097656 243.882812 184.046875 C 245.109375 183.234375 246.722656 183.433594 247.714844 184.472656 L 257.417969 194.179688 C 257.980469 194.742188 258.296875 195.5 258.296875 196.296875 L 258.296875 196.398438 C 258.296875 197.195312 257.980469 197.953125 257.417969 198.515625 L 254.785156 201.152344 L 257.417969 203.78125 C 257.980469 204.34375 258.296875 205.105469 258.296875 205.898438 L 258.296875 213.003906 C 258.296875 214.65625 256.953125 216 255.300781 216 "/></g><path style=" stroke:none;fill-rule:nonzero;fill:#001d61;fill-opacity:1;" d="M 253.65625 181.882812 C 252.945312 181.882812 252.234375 181.632812 251.664062 181.125 C 250.433594 180.027344 250.320312 178.136719 251.417969 176.902344 L 251.574219 176.722656 C 252.671875 175.484375 254.566406 175.371094 255.800781 176.472656 C 256.46875 177.0625 256.808594 177.882812 256.808594 178.710938 C 256.808594 179.417969 256.558594 180.125 256.054688 180.695312 L 255.886719 180.878906 C 255.300781 181.546875 254.480469 181.882812 253.65625 181.882812 "/><path style=" stroke:none;fill-rule:nonzero;fill:#001d61;fill-opacity:1;" d="M 249.574219 186.058594 C 248.773438 186.058594 247.976562 185.742188 247.386719 185.113281 C 246.257812 183.90625 246.316406 182.011719 247.523438 180.882812 L 247.769531 180.65625 C 248.96875 179.523438 250.863281 179.574219 251.996094 180.777344 C 253.132812 181.972656 253.085938 183.867188 251.886719 185.003906 C 251.824219 185.058594 251.765625 185.117188 251.707031 185.171875 L 251.617188 185.253906 C 251.039062 185.792969 250.304688 186.058594 249.574219 186.058594 "/><path style=" stroke:none;fill-rule:nonzero;fill:#001d61;fill-opacity:1;" d="M 246.941406 188.394531 C 246.085938 188.394531 245.238281 188.03125 244.652344 187.328125 C 244.179688 186.769531 243.949219 186.085938 243.949219 185.40625 C 243.949219 184.550781 244.308594 183.703125 245.011719 183.113281 L 245.085938 183.050781 C 246.347656 181.984375 248.238281 182.152344 249.300781 183.414062 C 249.777344 183.976562 250.007812 184.660156 250.007812 185.339844 C 250.007812 186.191406 249.644531 187.039062 248.941406 187.632812 L 248.867188 187.691406 C 248.304688 188.164062 247.625 188.394531 246.941406 188.394531 "/><path style=" stroke:none;fill-rule:nonzero;fill:#001d61;fill-opacity:1;" d="M 248.269531 187.25 C 247.445312 187.25 246.621094 186.910156 246.03125 186.242188 C 245.523438 185.675781 245.277344 184.964844 245.273438 184.257812 C 245.273438 183.433594 245.613281 182.609375 246.28125 182.015625 L 246.460938 181.855469 C 247.695312 180.761719 249.585938 180.871094 250.6875 182.105469 C 251.785156 183.34375 251.675781 185.230469 250.441406 186.328125 L 250.253906 186.492188 C 249.6875 187 248.976562 187.25 248.269531 187.25 "/></g></svg>