<svg xmlns="http://www.w3.org/2000/svg" xmlns:xlink="http://www.w3.org/1999/xlink" width="500" zoomAndPan="magnify" viewBox="0 0 375 374.999991" height="500" preserveAspectRatio="xMidYMid meet" version="1.2"><defs><clipPath id="aad3916d94"><path d="M 37.5 45 L 337.5 45 L 337.5 329 L 37.5 329 Z M 37.5 45 "/></clipPath></defs><g id="2068d52bb2"><g clip-rule="nonzero" clip-path="url(#aad3916d94)"><path style=" stroke:none;fill-rule:nonzero;fill:#001d61;fill-opacity:1;" d="M 337.191406 83.789062 C 337.132812 73.269531 329.964844 64.042969 319.917969 61.457031 C 318.035156 60.988281 316.15625 60.460938 314.21875 59.988281 C 313.804688 59.753906 313.335938 59.519531 312.867188 59.285156 C 302.230469 53.996094 290.359375 50.46875 278.667969 48.296875 C 270.382812 46.710938 261.863281 45.886719 253.398438 45.828125 C 253.339844 45.828125 253.339844 45.828125 253.28125 45.828125 C 240.003906 45.769531 226.78125 47.472656 213.972656 51.058594 C 204.921875 53.527344 195.933594 56.992188 187.46875 61.28125 C 187.117188 61.457031 184.355469 59.753906 183.945312 59.578125 C 158.207031 47.355469 129.0625 43.125 100.855469 47.472656 C 88.105469 49.472656 74.589844 52.996094 62.898438 58.929688 C 61.722656 59.519531 60.664062 60.164062 59.546875 60.8125 C 59.546875 60.8125 53.496094 62.222656 50.734375 63.574219 C 48.5 64.691406 46.386719 66.160156 44.625 67.921875 C 41.039062 71.449219 38.6875 76.148438 37.984375 81.144531 C 37.808594 82.199219 37.75 83.316406 37.75 84.375 C 37.691406 119.457031 37.632812 208.417969 37.632812 208.476562 C 37.632812 215.644531 40.628906 222.460938 45.738281 227.28125 C 50.5 231.863281 56.84375 234.332031 63.601562 234.332031 C 67.773438 234.332031 71.945312 233.332031 75.589844 231.453125 C 85.050781 226.574219 100.386719 220.582031 119.601562 220.054688 C 140.34375 219.464844 156.855469 225.222656 167.140625 230.277344 C 167.140625 235.625 171.488281 239.972656 176.835938 239.972656 L 198.164062 239.972656 C 199.867188 239.972656 201.398438 239.503906 202.808594 238.738281 C 202.867188 238.679688 207.332031 242.558594 207.625 242.089844 C 201.574219 250.199219 195.519531 258.367188 189.46875 266.472656 C 184.179688 273.585938 178.832031 280.753906 173.542969 287.863281 C 169.136719 293.796875 167.492188 301.320312 169.078125 308.546875 C 170.722656 315.773438 175.367188 321.945312 181.945312 325.410156 C 194.109375 331.875 209.800781 327.175781 216.261719 314.953125 C 219.671875 308.546875 221.316406 301.320312 223.667969 294.503906 C 227.367188 283.691406 231.953125 272.9375 235.125 262.066406 C 235.535156 260.832031 236.066406 259.304688 236.710938 257.542969 L 238.476562 258.484375 C 240.296875 259.480469 242.351562 259.953125 244.351562 259.953125 C 245.585938 259.953125 246.820312 259.777344 247.992188 259.421875 C 251.226562 258.425781 253.8125 256.25 255.398438 253.3125 L 260.511719 243.675781 C 274.261719 243.558594 287.539062 239.09375 298.527344 230.984375 C 298.703125 231.042969 298.882812 231.160156 299.058594 231.21875 C 301.113281 232.335938 303.171875 233.097656 305.226562 233.570312 C 313.160156 235.390625 321.269531 233.628906 327.554688 228.632812 C 333.785156 223.695312 337.367188 216.292969 337.367188 208.417969 C 337.308594 208.417969 337.25 118.984375 337.191406 83.789062 Z M 192.289062 69.625 C 192.757812 69.390625 193.289062 69.097656 193.816406 68.863281 C 194.640625 68.449219 195.460938 68.039062 196.285156 67.6875 C 197.285156 67.21875 198.222656 66.804688 199.222656 66.394531 C 200.046875 66.042969 200.867188 65.6875 201.75 65.335938 C 202.75 64.925781 203.804688 64.515625 204.804688 64.160156 C 205.628906 63.867188 206.449219 63.515625 207.332031 63.222656 C 208.390625 62.867188 209.445312 62.515625 210.503906 62.164062 C 211.328125 61.871094 212.148438 61.632812 213.03125 61.339844 C 214.148438 60.988281 215.265625 60.695312 216.320312 60.402344 C 217.144531 60.164062 217.96875 59.929688 218.789062 59.695312 C 219.964844 59.402344 221.082031 59.109375 222.257812 58.871094 C 223.019531 58.695312 223.84375 58.519531 224.605469 58.34375 C 225.898438 58.050781 227.191406 57.816406 228.425781 57.582031 C 229.074219 57.460938 229.777344 57.285156 230.425781 57.167969 C 232.304688 56.875 234.125 56.582031 236.007812 56.347656 C 236.125 56.347656 236.242188 56.289062 236.300781 56.289062 C 236.359375 56.289062 236.417969 56.289062 236.476562 56.289062 C 242.175781 55.640625 247.875 55.289062 253.457031 55.347656 C 277.550781 55.523438 296.882812 62.28125 308.753906 67.863281 C 308.988281 67.980469 309.222656 68.097656 309.398438 68.214844 C 309.515625 68.273438 309.574219 68.332031 309.691406 68.390625 C 311.28125 69.449219 312.21875 71.210938 312.21875 73.035156 L 312.21875 139.550781 C 311.867188 139.082031 311.515625 138.730469 311.160156 138.257812 C 310.28125 137.140625 309.398438 136.027344 308.457031 134.96875 C 307.871094 134.320312 307.285156 133.734375 306.695312 133.085938 C 305.695312 132.089844 304.699219 131.148438 303.699219 130.207031 C 303.054688 129.621094 302.464844 129.09375 301.820312 128.5625 C 300.644531 127.621094 299.46875 126.683594 298.234375 125.800781 C 297.648438 125.390625 297.058594 124.917969 296.472656 124.507812 C 294.589844 123.273438 292.710938 122.097656 290.714844 121.042969 C 259.042969 104.175781 219.554688 116.222656 202.691406 147.894531 C 202.042969 149.070312 201.457031 150.246094 200.925781 151.480469 C 200.75 151.890625 200.574219 152.300781 200.398438 152.65625 C 200.046875 153.476562 199.691406 154.300781 199.398438 155.121094 C 199.222656 155.59375 199.046875 156.0625 198.871094 156.53125 C 198.578125 157.296875 198.339844 158.0625 198.105469 158.824219 C 197.929688 159.355469 197.8125 159.824219 197.636719 160.351562 C 197.402344 161.117188 197.226562 161.820312 197.046875 162.585938 C 196.929688 163.113281 196.8125 163.644531 196.695312 164.171875 C 196.519531 164.9375 196.34375 165.640625 196.226562 166.40625 C 196.109375 166.933594 196.050781 167.460938 195.933594 167.992188 C 195.816406 168.753906 195.695312 169.519531 195.578125 170.28125 C 195.519531 170.8125 195.460938 171.339844 195.402344 171.871094 C 195.34375 172.632812 195.285156 173.398438 195.226562 174.160156 C 195.167969 174.691406 195.167969 175.21875 195.109375 175.6875 C 195.050781 176.511719 195.050781 177.277344 195.050781 178.097656 C 195.050781 178.570312 195.050781 179.097656 195.050781 179.566406 C 195.050781 180.449219 195.109375 181.269531 195.167969 182.09375 C 195.167969 182.503906 195.226562 182.976562 195.226562 183.386719 C 195.285156 184.328125 195.402344 185.324219 195.519531 186.265625 C 195.578125 186.617188 195.578125 186.914062 195.636719 187.265625 C 195.992188 189.851562 196.519531 192.4375 197.226562 195.019531 C 197.285156 195.140625 197.285156 195.257812 197.34375 195.375 C 197.636719 196.492188 197.988281 197.664062 198.339844 198.78125 C 198.457031 199.132812 198.578125 199.429688 198.695312 199.78125 C 198.988281 200.664062 199.339844 201.601562 199.691406 202.484375 C 199.871094 202.894531 200.046875 203.304688 200.222656 203.71875 C 200.457031 204.304688 200.691406 204.894531 200.984375 205.480469 C 198.046875 206.773438 195.226562 208.125 192.40625 209.652344 L 192.40625 69.625 Z M 62.722656 73.152344 C 62.722656 71.507812 63.425781 69.980469 64.71875 68.921875 C 65.191406 68.507812 65.660156 68.214844 66.1875 67.980469 C 78.175781 62.339844 97.566406 55.582031 121.601562 55.40625 C 127.59375 55.347656 133.585938 55.699219 139.464844 56.464844 C 150.570312 57.875 161.675781 60.753906 172.132812 64.925781 C 172.25 64.984375 172.429688 65.042969 172.546875 65.101562 C 173.957031 65.6875 175.367188 66.277344 176.71875 66.863281 C 177.246094 67.097656 177.773438 67.335938 178.304688 67.570312 C 179.363281 68.039062 180.417969 68.570312 181.476562 69.097656 C 181.886719 69.273438 182.300781 69.507812 182.710938 69.683594 L 182.710938 209.828125 C 169.605469 202.894531 148.746094 194.84375 122.714844 194.84375 C 121.421875 194.84375 120.132812 194.84375 118.839844 194.902344 C 94.980469 195.609375 75.882812 203.011719 64.132812 209.125 C 63.660156 209.359375 63.308594 209.183594 63.132812 209.125 C 62.78125 208.890625 62.78125 208.652344 62.78125 208.535156 L 62.78125 73.152344 Z M 202.160156 221.347656 L 201.160156 223.285156 C 199.28125 225.105469 198.222656 227.574219 198.164062 230.277344 L 176.777344 230.21875 C 176.777344 226.515625 174.601562 223.050781 171.195312 221.40625 C 160.617188 216.351562 143.636719 210.359375 122.714844 210.359375 C 121.660156 210.359375 120.484375 210.417969 119.367188 210.417969 C 98.390625 211.003906 81.582031 217.527344 71.242188 222.933594 C 68.949219 224.109375 66.363281 224.753906 63.660156 224.753906 C 59.429688 224.753906 55.433594 223.167969 52.378906 220.289062 C 49.148438 217.292969 47.269531 213.003906 47.269531 208.476562 C 47.269531 208.476562 47.328125 119.457031 47.328125 84.433594 C 47.328125 79.851562 49.617188 75.738281 53.203125 73.269531 L 53.203125 208.535156 C 53.203125 212.121094 55.082031 215.410156 58.136719 217.292969 C 61.3125 219.230469 65.191406 219.347656 68.539062 217.644531 C 79.46875 212.003906 97.097656 205.1875 119.191406 204.539062 C 150.273438 203.601562 173.78125 215.234375 185.003906 222.226562 C 185.0625 222.226562 185.0625 222.226562 185.121094 222.285156 C 185.179688 222.285156 185.179688 222.34375 185.179688 222.34375 C 185.355469 222.460938 185.589844 222.519531 185.765625 222.582031 C 185.941406 222.640625 186.117188 222.757812 186.296875 222.816406 C 186.472656 222.875 186.648438 222.875 186.765625 222.875 C 187 222.933594 187.234375 222.992188 187.53125 222.992188 C 188.351562 222.992188 189.117188 222.816406 189.878906 222.402344 C 189.9375 222.34375 189.996094 222.34375 190.054688 222.285156 C 194.992188 219.230469 200.222656 216.527344 205.570312 214.234375 C 205.570312 214.292969 205.628906 214.292969 205.628906 214.355469 C 205.6875 214.472656 205.746094 214.53125 205.804688 214.648438 Z M 208.742188 308.253906 C 208.449219 309.015625 208.15625 309.78125 207.800781 310.484375 C 205.863281 314.128906 202.570312 316.890625 198.519531 318.125 C 194.464844 319.359375 190.171875 318.949219 186.414062 316.949219 C 182.359375 314.777344 179.421875 310.957031 178.421875 306.429688 C 177.421875 301.90625 178.421875 297.265625 181.183594 293.5625 L 188.585938 283.691406 L 212.914062 296.617188 Z M 216.027344 287.394531 L 194.285156 275.816406 L 197.753906 271.234375 L 217.910156 281.988281 Z M 221.140625 272.820312 L 203.511719 263.417969 L 216.085938 246.496094 L 228.074219 252.902344 Z M 246.9375 248.730469 C 246.582031 249.433594 245.9375 249.960938 245.171875 250.199219 C 244.410156 250.433594 243.585938 250.375 242.882812 249.960938 L 210.386719 232.628906 C 208.917969 231.863281 208.390625 230.042969 209.210938 228.515625 L 212.269531 222.699219 C 212.796875 223.285156 213.324219 223.8125 213.914062 224.34375 C 218.4375 228.925781 223.726562 232.804688 229.484375 235.917969 C 230.953125 236.683594 232.421875 237.386719 233.890625 238.035156 C 234.242188 238.210938 234.65625 238.386719 235.007812 238.503906 C 236.476562 239.09375 237.886719 239.679688 239.414062 240.207031 C 239.472656 240.207031 239.53125 240.265625 239.589844 240.265625 C 241.117188 240.796875 242.648438 241.207031 244.175781 241.617188 C 244.585938 241.734375 244.996094 241.792969 245.351562 241.914062 C 246.820312 242.265625 248.289062 242.558594 249.757812 242.792969 C 249.875 242.792969 249.933594 242.851562 250.050781 242.851562 Z M 302.523438 214.292969 C 300.292969 216.996094 297.765625 219.464844 295.003906 221.699219 C 284.542969 230.21875 271.382812 234.625 257.867188 234.097656 C 249.523438 233.746094 241.53125 231.570312 234.007812 227.632812 C 229.074219 224.988281 224.605469 221.699219 220.671875 217.703125 C 218.730469 215.824219 216.96875 213.707031 215.265625 211.414062 C 214.03125 209.710938 212.796875 207.773438 211.679688 205.832031 C 202.394531 189.203125 202.160156 169.285156 211.09375 152.539062 C 211.914062 151.007812 212.796875 149.597656 213.679688 148.1875 C 213.914062 147.835938 214.148438 147.425781 214.441406 147.074219 C 215.265625 145.898438 216.085938 144.722656 217.027344 143.664062 C 217.203125 143.488281 217.320312 143.253906 217.496094 143.078125 C 218.554688 141.84375 219.613281 140.667969 220.789062 139.492188 C 221.082031 139.199219 221.375 138.90625 221.667969 138.667969 C 222.609375 137.730469 223.609375 136.847656 224.605469 136.027344 C 224.902344 135.789062 225.136719 135.554688 225.429688 135.378906 C 226.664062 134.378906 227.957031 133.441406 229.25 132.558594 C 229.542969 132.382812 229.835938 132.207031 230.128906 132.03125 C 231.246094 131.324219 232.363281 130.679688 233.539062 130.03125 C 233.890625 129.855469 234.242188 129.621094 234.597656 129.445312 C 236.007812 128.738281 237.417969 128.035156 238.886719 127.445312 C 239.0625 127.386719 239.296875 127.328125 239.472656 127.210938 C 240.765625 126.683594 242.058594 126.210938 243.410156 125.800781 C 243.820312 125.683594 244.175781 125.566406 244.585938 125.449219 C 246.113281 125.039062 247.582031 124.625 249.109375 124.273438 C 249.109375 124.273438 249.167969 124.273438 249.167969 124.273438 C 250.695312 123.980469 252.285156 123.746094 253.871094 123.570312 C 254.28125 123.507812 254.691406 123.507812 255.105469 123.449219 C 256.457031 123.332031 257.808594 123.214844 259.160156 123.214844 C 259.394531 123.214844 259.6875 123.214844 259.921875 123.214844 C 261.507812 123.214844 263.035156 123.273438 264.625 123.390625 C 264.976562 123.390625 265.269531 123.449219 265.621094 123.507812 C 267.207031 123.6875 268.796875 123.863281 270.324219 124.15625 C 270.5 124.214844 270.675781 124.214844 270.851562 124.273438 C 272.320312 124.566406 273.789062 124.917969 275.257812 125.332031 C 275.554688 125.390625 275.789062 125.507812 276.082031 125.566406 C 277.609375 126.035156 279.136719 126.566406 280.664062 127.152344 C 280.957031 127.269531 281.253906 127.386719 281.605469 127.5625 C 283.132812 128.210938 284.71875 128.914062 286.1875 129.738281 C 290.832031 132.207031 295.0625 135.261719 298.761719 138.847656 C 304.933594 144.839844 309.632812 152.183594 312.570312 160.527344 C 313.101562 161.996094 313.511719 163.46875 313.921875 164.996094 C 316.625 175.511719 316.15625 186.675781 312.570312 196.902344 C 311.632812 199.605469 310.515625 202.25 309.164062 204.777344 C 307.988281 207.007812 306.695312 209.066406 305.34375 210.886719 C 304.34375 212.003906 303.464844 213.121094 302.523438 214.292969 Z M 321.5625 221.167969 C 317.625 224.285156 312.453125 225.460938 307.34375 224.285156 C 307.105469 224.226562 306.8125 224.167969 306.578125 224.109375 C 306.695312 223.992188 306.8125 223.8125 306.988281 223.695312 C 307.753906 222.933594 308.457031 222.109375 309.164062 221.289062 C 309.515625 220.933594 309.808594 220.523438 310.164062 220.171875 C 311.160156 218.9375 312.101562 217.703125 313.042969 216.46875 C 314.628906 214.292969 316.097656 211.886719 317.507812 209.242188 C 318.332031 207.773438 319.035156 206.246094 319.742188 204.65625 C 319.859375 204.363281 319.976562 204.011719 320.09375 203.71875 C 320.621094 202.484375 321.09375 201.191406 321.5625 199.957031 C 325.675781 188.324219 326.203125 175.628906 323.324219 163.585938 C 323.265625 163.230469 323.207031 162.878906 323.089844 162.585938 C 322.738281 161.117188 322.269531 159.648438 321.796875 158.238281 L 321.796875 73.09375 C 321.796875 72.917969 321.796875 72.800781 321.796875 72.621094 C 325.382812 75.089844 327.671875 79.203125 327.671875 83.789062 C 327.730469 118.925781 327.792969 208.183594 327.792969 208.417969 C 327.730469 213.414062 325.5 218.054688 321.5625 221.167969 Z M 72.125 83.433594 C 71.125 80.96875 72.242188 78.207031 74.707031 77.148438 C 89.75 70.859375 105.558594 67.628906 121.601562 67.511719 C 124.304688 67.570312 126.417969 69.625 126.417969 72.269531 C 126.417969 74.914062 124.304688 77.089844 121.660156 77.089844 C 106.851562 77.207031 92.277344 80.203125 78.351562 86.019531 C 77.765625 86.253906 77.117188 86.371094 76.53125 86.371094 C 74.707031 86.371094 72.886719 85.257812 72.125 83.433594 Z M 201.691406 83.433594 C 200.691406 80.96875 201.808594 78.207031 204.277344 77.148438 C 214.792969 72.800781 225.78125 69.859375 237.007812 68.449219 L 237.535156 68.390625 C 242.410156 67.804688 247.289062 67.511719 252.105469 67.511719 L 253.28125 67.511719 C 273.4375 67.6875 289.949219 72.859375 300.230469 77.148438 C 302.699219 78.144531 303.816406 80.96875 302.816406 83.433594 C 301.820312 85.902344 299 87.019531 296.53125 86.019531 C 287.011719 82.082031 271.792969 77.265625 253.222656 77.148438 L 252.105469 77.148438 C 247.699219 77.148438 243.175781 77.441406 238.652344 77.96875 L 238.179688 78.027344 C 227.839844 79.320312 217.671875 82.023438 207.976562 86.078125 C 207.390625 86.3125 206.742188 86.429688 206.15625 86.429688 C 204.21875 86.371094 202.453125 85.257812 201.691406 83.433594 Z M 72.125 108.46875 C 71.125 106 72.242188 103.238281 74.707031 102.179688 C 89.75 95.949219 105.558594 92.71875 121.660156 92.601562 L 122.832031 92.601562 C 125.59375 92.660156 127.652344 94.71875 127.652344 97.359375 C 127.652344 100.003906 125.535156 102.179688 122.894531 102.179688 L 121.71875 102.179688 C 106.910156 102.296875 92.335938 105.292969 78.410156 111.109375 C 77.824219 111.347656 77.175781 111.464844 76.589844 111.464844 C 74.707031 111.464844 72.886719 110.347656 72.125 108.46875 Z M 201.691406 108.46875 C 200.691406 106 201.808594 103.238281 204.277344 102.179688 C 214.792969 97.832031 225.78125 94.894531 237.007812 93.484375 L 237.535156 93.425781 C 242.410156 92.835938 247.289062 92.542969 252.105469 92.542969 L 253.28125 92.542969 C 273.4375 92.71875 289.949219 97.890625 300.230469 102.179688 C 302.699219 103.179688 303.816406 106 302.816406 108.46875 C 301.820312 110.933594 299 112.050781 296.53125 111.050781 C 287.011719 107.117188 271.792969 102.296875 253.222656 102.179688 L 252.105469 102.179688 C 247.699219 102.179688 243.175781 102.472656 238.652344 103.003906 L 238.179688 103.0625 C 227.839844 104.355469 217.671875 107.054688 207.976562 111.109375 C 207.390625 111.347656 206.742188 111.464844 206.15625 111.464844 C 204.21875 111.40625 202.453125 110.289062 201.691406 108.46875 Z M 72.125 133.558594 C 71.125 131.089844 72.242188 128.328125 74.707031 127.269531 C 89.75 120.984375 105.558594 117.75 121.601562 117.632812 L 122.773438 117.632812 C 128.003906 117.632812 133.175781 117.984375 138.171875 118.632812 C 140.109375 118.867188 142.105469 119.160156 144.105469 119.515625 C 153.214844 121.101562 162.144531 123.746094 170.664062 127.269531 C 173.132812 128.269531 174.25 131.089844 173.25 133.558594 C 172.488281 135.378906 170.722656 136.496094 168.84375 136.496094 C 168.257812 136.496094 167.609375 136.378906 167.023438 136.144531 C 159.148438 132.851562 150.863281 130.445312 142.460938 128.972656 C 140.636719 128.679688 138.816406 128.386719 136.996094 128.152344 C 132.351562 127.5625 127.59375 127.269531 122.832031 127.269531 L 121.71875 127.269531 C 106.910156 127.386719 92.335938 130.382812 78.410156 136.203125 C 77.824219 136.4375 77.175781 136.554688 76.589844 136.554688 C 74.707031 136.496094 72.886719 135.378906 72.125 133.558594 Z M 72.125 158.589844 C 71.125 156.121094 72.242188 153.359375 74.707031 152.300781 C 89.75 146.015625 105.558594 142.78125 121.601562 142.664062 L 122.773438 142.664062 C 128.003906 142.664062 133.175781 143.019531 138.171875 143.664062 C 149.277344 145.074219 160.207031 147.953125 170.664062 152.300781 C 173.132812 153.300781 174.25 156.121094 173.25 158.589844 C 172.25 161.058594 169.429688 162.175781 166.964844 161.175781 C 157.328125 157.179688 147.21875 154.476562 136.996094 153.183594 C 132.351562 152.597656 127.59375 152.300781 122.832031 152.300781 L 121.71875 152.300781 C 106.910156 152.417969 92.335938 155.417969 78.410156 161.234375 C 77.824219 161.46875 77.175781 161.585938 76.589844 161.585938 C 74.707031 161.527344 72.886719 160.410156 72.125 158.589844 Z M 72.125 183.621094 C 71.125 181.152344 72.242188 178.390625 74.707031 177.335938 C 89.75 171.046875 105.558594 167.816406 121.601562 167.699219 L 122.773438 167.699219 C 128.003906 167.699219 133.175781 168.050781 138.171875 168.695312 C 149.277344 170.105469 160.207031 172.984375 170.605469 177.335938 C 173.074219 178.332031 174.191406 181.152344 173.191406 183.621094 C 172.191406 186.089844 169.371094 187.207031 166.90625 186.207031 C 157.269531 182.210938 147.160156 179.507812 136.9375 178.214844 C 132.292969 177.628906 127.535156 177.335938 122.773438 177.335938 L 121.660156 177.335938 C 106.851562 177.453125 92.277344 180.449219 78.351562 186.265625 C 77.765625 186.5 77.117188 186.617188 76.53125 186.617188 C 74.707031 186.558594 72.886719 185.445312 72.125 183.621094 Z M 282.664062 136.144531 C 259.277344 123.6875 230.070312 132.558594 217.613281 156.003906 C 205.15625 179.390625 214.03125 208.59375 237.476562 221.050781 C 244.527344 224.8125 252.226562 226.695312 260.039062 226.695312 C 264.742188 226.695312 269.5 225.988281 274.144531 224.578125 C 286.421875 220.816406 296.53125 212.53125 302.523438 201.191406 C 314.921875 177.746094 306.050781 148.601562 282.664062 136.144531 Z M 294.003906 196.667969 C 289.183594 205.714844 281.078125 212.414062 271.261719 215.410156 C 261.449219 218.40625 250.992188 217.410156 241.941406 212.589844 C 223.195312 202.601562 216.085938 179.273438 226.078125 160.527344 C 233.011719 147.542969 246.347656 140.140625 260.097656 140.140625 C 266.210938 140.140625 272.378906 141.609375 278.136719 144.664062 C 287.1875 149.480469 293.886719 157.589844 296.882812 167.402344 C 299.878906 177.15625 298.882812 187.558594 294.003906 196.667969 Z M 294.003906 196.667969 "/></g></g></svg>