<svg xmlns="http://www.w3.org/2000/svg" xmlns:xlink="http://www.w3.org/1999/xlink" width="500" zoomAndPan="magnify" viewBox="0 0 375 374.999991" height="500" preserveAspectRatio="xMidYMid meet" version="1.2"><defs><clipPath id="86d5adb579"><path d="M 37.5 38.4375 L 337.5 38.4375 L 337.5 336.9375 L 37.5 336.9375 Z M 37.5 38.4375 "/></clipPath></defs><g id="2601917c61"><path style=" stroke:none;fill-rule:nonzero;fill:#001d61;fill-opacity:1;" d="M 166.738281 120.429688 L 186.402344 120.429688 L 186.402344 127.351562 L 166.738281 127.351562 Z M 166.738281 120.429688 "/><path style=" stroke:none;fill-rule:nonzero;fill:#001d61;fill-opacity:1;" d="M 86.867188 120.429688 L 153.707031 120.429688 L 153.707031 127.351562 L 86.867188 127.351562 Z M 86.867188 120.429688 "/><g clip-rule="nonzero" clip-path="url(#86d5adb579)"><path style=" stroke:none;fill-rule:nonzero;fill:#001d61;fill-opacity:1;" d="M 336.691406 239.574219 C 336.648438 239.195312 336.542969 238.828125 336.375 238.480469 C 336.210938 238.132812 335.988281 237.824219 335.71875 237.550781 C 335.445312 237.28125 335.136719 237.058594 334.789062 236.894531 C 334.441406 236.726562 334.078125 236.621094 333.695312 236.578125 L 320.3125 234.847656 C 319.574219 231.597656 318.632812 228.40625 317.488281 225.273438 L 327.867188 216.625 C 328.164062 216.371094 328.410156 216.074219 328.605469 215.738281 C 328.804688 215.40625 328.941406 215.046875 329.019531 214.664062 C 329.097656 214.285156 329.113281 213.902344 329.0625 213.515625 C 329.015625 213.128906 328.90625 212.761719 328.734375 212.414062 C 326.3125 207.320312 323.390625 202.535156 319.96875 198.054688 C 319.664062 197.632812 319.28125 197.304688 318.816406 197.074219 L 318.816406 155.261719 C 318.8125 154.699219 318.785156 154.136719 318.726562 153.574219 C 318.667969 153.011719 318.585938 152.457031 318.472656 151.902344 C 318.363281 151.347656 318.222656 150.804688 318.058594 150.261719 C 317.894531 149.722656 317.703125 149.195312 317.488281 148.671875 C 317.269531 148.152344 317.027344 147.640625 316.761719 147.144531 C 316.496094 146.648438 316.203125 146.164062 315.890625 145.695312 C 315.578125 145.226562 315.242188 144.773438 314.882812 144.339844 C 314.523438 143.902344 314.148438 143.484375 313.746094 143.085938 C 313.347656 142.6875 312.929688 142.308594 312.496094 141.949219 C 312.058594 141.59375 311.605469 141.257812 311.136719 140.941406 C 310.667969 140.628906 310.1875 140.339844 309.6875 140.070312 C 309.191406 139.804688 308.683594 139.5625 308.160156 139.347656 C 307.640625 139.128906 307.109375 138.9375 306.570312 138.773438 C 306.03125 138.609375 305.484375 138.472656 304.929688 138.359375 C 304.378906 138.25 303.820312 138.164062 303.261719 138.105469 C 302.699219 138.050781 302.136719 138.019531 301.570312 138.019531 L 297.878906 138.019531 L 297.878906 113.796875 C 297.878906 112.804688 297.785156 111.824219 297.589844 110.851562 C 297.398438 109.875 297.109375 108.933594 296.730469 108.015625 C 296.351562 107.097656 295.886719 106.226562 295.335938 105.402344 C 294.78125 104.578125 294.15625 103.816406 293.453125 103.113281 C 292.753906 102.410156 291.992188 101.785156 291.164062 101.234375 C 290.339844 100.683594 289.46875 100.21875 288.554688 99.839844 C 287.636719 99.457031 286.691406 99.171875 285.71875 98.976562 C 284.746094 98.785156 283.761719 98.6875 282.769531 98.6875 L 261.261719 98.6875 L 261.261719 87.210938 C 261.246094 86.261719 260.902344 85.453125 260.222656 84.789062 L 215.007812 39.574219 C 214.328125 38.882812 213.5 38.535156 212.527344 38.539062 L 104.398438 38.539062 C 103.539062 38.539062 102.6875 38.621094 101.84375 38.789062 C 101 38.957031 100.183594 39.207031 99.386719 39.535156 C 98.59375 39.863281 97.839844 40.265625 97.125 40.746094 C 96.410156 41.222656 95.75 41.765625 95.140625 42.371094 C 94.53125 42.980469 93.988281 43.640625 93.511719 44.355469 C 93.035156 45.070312 92.632812 45.824219 92.300781 46.621094 C 91.972656 47.414062 91.726562 48.230469 91.558594 49.074219 C 91.390625 49.917969 91.304688 50.769531 91.304688 51.628906 L 91.304688 59.761719 L 69.046875 59.761719 C 68.1875 59.761719 67.339844 59.84375 66.5 60.011719 C 65.65625 60.175781 64.839844 60.425781 64.050781 60.75 C 63.257812 61.078125 62.503906 61.480469 61.789062 61.953125 C 61.078125 62.429688 60.417969 62.96875 59.808594 63.574219 C 59.203125 64.179688 58.660156 64.835938 58.179688 65.546875 C 57.703125 66.261719 57.296875 67.011719 56.96875 67.800781 C 56.636719 68.59375 56.386719 69.410156 56.214844 70.25 C 56.046875 71.089844 55.957031 71.9375 55.953125 72.792969 L 55.953125 98.6875 L 52.667969 98.6875 C 51.671875 98.6875 50.691406 98.785156 49.714844 98.976562 C 48.742188 99.171875 47.792969 99.457031 46.875 99.835938 C 45.957031 100.214844 45.085938 100.679688 44.257812 101.230469 C 43.433594 101.78125 42.667969 102.410156 41.960938 103.109375 C 41.257812 103.8125 40.628906 104.574219 40.074219 105.398438 C 39.523438 106.222656 39.054688 107.09375 38.671875 108.011719 C 38.289062 108.929688 38 109.875 37.800781 110.847656 C 37.605469 111.820312 37.503906 112.804688 37.5 113.796875 L 37.5 306.414062 C 37.5 307.132812 37.535156 307.847656 37.605469 308.5625 C 37.675781 309.277344 37.78125 309.988281 37.921875 310.691406 C 38.0625 311.394531 38.234375 312.089844 38.445312 312.777344 C 38.652344 313.464844 38.894531 314.140625 39.167969 314.800781 C 39.441406 315.464844 39.75 316.113281 40.085938 316.746094 C 40.425781 317.378906 40.792969 317.992188 41.191406 318.589844 C 41.59375 319.1875 42.019531 319.761719 42.472656 320.316406 C 42.929688 320.875 43.410156 321.402344 43.917969 321.910156 C 44.425781 322.417969 44.957031 322.902344 45.511719 323.355469 C 46.066406 323.8125 46.644531 324.238281 47.238281 324.636719 C 47.835938 325.035156 48.453125 325.40625 49.085938 325.742188 C 49.71875 326.082031 50.363281 326.386719 51.027344 326.664062 C 51.691406 326.9375 52.367188 327.179688 53.054688 327.386719 C 53.738281 327.59375 54.433594 327.769531 55.140625 327.910156 C 55.84375 328.050781 56.550781 328.15625 57.265625 328.226562 C 57.980469 328.296875 58.695312 328.332031 59.414062 328.332031 L 214.027344 328.332031 L 214.027344 328.214844 L 217.027344 329.542969 C 217.378906 329.695312 217.75 329.785156 218.132812 329.816406 C 218.515625 329.84375 218.894531 329.808594 219.265625 329.710938 C 219.636719 329.609375 219.984375 329.453125 220.300781 329.234375 C 220.621094 329.019531 220.894531 328.753906 221.121094 328.445312 L 221.238281 328.332031 L 240.441406 328.332031 L 241.074219 331.90625 L 241.304688 333.40625 C 241.378906 333.78125 241.511719 334.136719 241.703125 334.46875 C 241.894531 334.800781 242.132812 335.097656 242.417969 335.351562 C 242.703125 335.605469 243.023438 335.808594 243.375 335.960938 C 243.726562 336.109375 244.097656 336.199219 244.476562 336.230469 C 246.613281 336.402344 248.746094 336.460938 250.878906 336.460938 C 254.355469 336.480469 257.8125 336.269531 261.261719 335.828125 C 261.644531 335.785156 262.015625 335.679688 262.367188 335.515625 C 262.714844 335.347656 263.03125 335.128906 263.308594 334.859375 C 263.585938 334.585938 263.808594 334.277344 263.984375 333.929688 C 264.15625 333.582031 264.265625 333.214844 264.316406 332.828125 L 264.894531 328.332031 L 293.152344 328.332031 C 293.992188 328.328125 294.832031 328.285156 295.667969 328.203125 C 296.503906 328.117188 297.335938 327.992188 298.160156 327.828125 C 298.984375 327.660156 299.800781 327.453125 300.605469 327.210938 C 301.410156 326.964844 302.199219 326.679688 302.976562 326.355469 C 303.753906 326.03125 304.511719 325.671875 305.253906 325.273438 C 305.996094 324.878906 306.714844 324.445312 307.414062 323.976562 C 308.113281 323.507812 308.785156 323.007812 309.4375 322.472656 C 310.085938 321.9375 310.707031 321.371094 311.300781 320.777344 C 311.894531 320.179688 312.460938 319.558594 312.992188 318.90625 C 313.527344 318.257812 314.023438 317.582031 314.492188 316.882812 C 314.957031 316.179688 315.390625 315.460938 315.785156 314.71875 C 316.183594 313.976562 316.539062 313.214844 316.863281 312.4375 C 317.183594 311.660156 317.464844 310.871094 317.710938 310.066406 C 317.953125 309.261719 318.15625 308.445312 318.320312 307.621094 C 318.484375 306.796875 318.609375 305.964844 318.691406 305.128906 C 318.773438 304.289062 318.816406 303.449219 318.816406 302.609375 L 318.816406 300.070312 C 319.492188 300.210938 320.152344 300.152344 320.792969 299.886719 C 321.433594 299.625 321.949219 299.207031 322.332031 298.628906 C 323.917969 296.300781 325.378906 293.898438 326.714844 291.421875 C 328.042969 289 329.253906 286.460938 330.40625 283.867188 C 330.546875 283.507812 330.628906 283.136719 330.652344 282.75 C 330.675781 282.363281 330.636719 281.984375 330.539062 281.613281 C 330.4375 281.238281 330.285156 280.890625 330.074219 280.566406 C 329.867188 280.242188 329.609375 279.957031 329.3125 279.714844 L 318.585938 271.640625 C 319.121094 270.027344 319.582031 268.355469 319.96875 266.625 C 320.3125 265.125 320.660156 263.625 320.949219 261.835938 L 334.210938 259.53125 C 334.59375 259.46875 334.949219 259.34375 335.289062 259.164062 C 335.628906 258.980469 335.925781 258.75 336.1875 258.46875 C 336.449219 258.183594 336.65625 257.867188 336.8125 257.515625 C 336.96875 257.164062 337.0625 256.796875 337.097656 256.414062 C 337.511719 250.789062 337.375 245.175781 336.691406 239.574219 Z M 282.769531 105.609375 C 283.308594 105.613281 283.839844 105.667969 284.363281 105.773438 C 284.890625 105.882812 285.402344 106.039062 285.894531 106.246094 C 286.390625 106.453125 286.863281 106.707031 287.308594 107.007812 C 287.753906 107.304688 288.164062 107.644531 288.546875 108.023438 C 288.925781 108.402344 289.261719 108.816406 289.5625 109.261719 C 289.863281 109.707031 290.113281 110.175781 290.320312 110.671875 C 290.527344 111.167969 290.6875 111.679688 290.792969 112.203125 C 290.902344 112.730469 290.957031 113.261719 290.960938 113.796875 L 290.960938 138.019531 L 261.261719 138.019531 L 261.261719 105.609375 Z M 215.988281 50.359375 L 249.4375 83.75 L 222.332031 83.75 C 221.917969 83.753906 221.507812 83.71875 221.097656 83.640625 C 220.691406 83.5625 220.292969 83.445312 219.910156 83.289062 C 219.523438 83.132812 219.160156 82.941406 218.8125 82.710938 C 218.464844 82.484375 218.144531 82.222656 217.851562 81.929688 C 217.554688 81.636719 217.292969 81.320312 217.058594 80.976562 C 216.828125 80.632812 216.632812 80.269531 216.472656 79.882812 C 216.3125 79.5 216.191406 79.105469 216.109375 78.699219 C 216.03125 78.292969 215.988281 77.878906 215.988281 77.464844 Z M 98.226562 51.628906 C 98.226562 51.222656 98.265625 50.824219 98.34375 50.425781 C 98.425781 50.027344 98.542969 49.640625 98.695312 49.269531 C 98.851562 48.894531 99.042969 48.539062 99.265625 48.199219 C 99.492188 47.863281 99.746094 47.550781 100.035156 47.265625 C 100.320312 46.980469 100.632812 46.722656 100.96875 46.5 C 101.304688 46.273438 101.660156 46.082031 102.035156 45.929688 C 102.410156 45.773438 102.796875 45.65625 103.195312 45.578125 C 103.589844 45.496094 103.992188 45.457031 104.398438 45.457031 L 209.070312 45.457031 L 209.070312 77.464844 C 209.074219 78.332031 209.160156 79.195312 209.332031 80.042969 C 209.507812 80.894531 209.761719 81.722656 210.09375 82.523438 C 210.429688 83.324219 210.839844 84.085938 211.324219 84.808594 C 211.808594 85.527344 212.359375 86.195312 212.972656 86.808594 C 213.589844 87.421875 214.257812 87.96875 214.980469 88.449219 C 215.703125 88.929688 216.46875 89.335938 217.269531 89.667969 C 218.074219 90 218.898438 90.25 219.753906 90.417969 C 220.605469 90.585938 221.464844 90.671875 222.332031 90.671875 L 254.339844 90.671875 L 254.339844 138.019531 L 225.851562 138.019531 L 225.851562 108.433594 C 225.859375 107.492188 225.53125 106.683594 224.871094 106.011719 L 179.65625 60.742188 C 178.960938 60.089844 178.132812 59.761719 177.175781 59.761719 L 98.226562 59.761719 Z M 180.636719 71.582031 L 214.085938 104.972656 L 186.980469 104.972656 C 186.566406 104.976562 186.152344 104.941406 185.746094 104.863281 C 185.339844 104.785156 184.941406 104.667969 184.558594 104.511719 C 184.171875 104.355469 183.808594 104.164062 183.460938 103.933594 C 183.113281 103.707031 182.792969 103.445312 182.5 103.152344 C 182.203125 102.859375 181.941406 102.542969 181.707031 102.199219 C 181.476562 101.855469 181.28125 101.488281 181.121094 101.105469 C 180.960938 100.722656 180.839844 100.328125 180.757812 99.921875 C 180.679688 99.515625 180.636719 99.101562 180.636719 98.6875 Z M 62.875 72.792969 C 62.878906 72.390625 62.921875 71.992188 63.003906 71.597656 C 63.085938 71.203125 63.203125 70.820312 63.359375 70.449219 C 63.519531 70.078125 63.710938 69.726562 63.933594 69.394531 C 64.160156 69.058594 64.417969 68.75 64.703125 68.46875 C 64.988281 68.183594 65.300781 67.929688 65.636719 67.707031 C 65.972656 67.488281 66.324219 67.296875 66.699219 67.144531 C 67.070312 66.992188 67.453125 66.875 67.847656 66.796875 C 68.242188 66.71875 68.644531 66.679688 69.046875 66.679688 L 173.71875 66.679688 L 173.71875 98.6875 C 173.71875 99.554688 173.808594 100.417969 173.980469 101.265625 C 174.152344 102.117188 174.40625 102.945312 174.742188 103.746094 C 175.078125 104.546875 175.488281 105.308594 175.972656 106.03125 C 176.457031 106.75 177.007812 107.417969 177.621094 108.03125 C 178.238281 108.644531 178.90625 109.191406 179.628906 109.671875 C 180.351562 110.152344 181.117188 110.558594 181.917969 110.890625 C 182.722656 111.222656 183.546875 111.472656 184.398438 111.640625 C 185.253906 111.808594 186.113281 111.894531 186.980469 111.894531 L 218.929688 111.894531 L 218.929688 138.019531 L 91.652344 138.019531 C 91.089844 138.019531 90.523438 138.050781 89.964844 138.105469 C 89.402344 138.164062 88.84375 138.25 88.292969 138.359375 C 87.738281 138.472656 87.191406 138.609375 86.652344 138.773438 C 86.113281 138.9375 85.582031 139.128906 85.0625 139.347656 C 84.542969 139.5625 84.03125 139.804688 83.535156 140.070312 C 83.039062 140.339844 82.554688 140.628906 82.085938 140.941406 C 81.617188 141.257812 81.164062 141.59375 80.730469 141.949219 C 80.292969 142.308594 79.875 142.6875 79.476562 143.085938 C 79.078125 143.484375 78.699219 143.902344 78.339844 144.339844 C 77.980469 144.773438 77.644531 145.226562 77.332031 145.695312 C 77.019531 146.164062 76.726562 146.648438 76.460938 147.144531 C 76.195312 147.640625 75.953125 148.152344 75.738281 148.671875 C 75.519531 149.195312 75.328125 149.722656 75.164062 150.261719 C 75 150.804688 74.859375 151.347656 74.75 151.902344 C 74.636719 152.457031 74.554688 153.011719 74.496094 153.574219 C 74.441406 154.136719 74.410156 154.699219 74.410156 155.261719 L 74.410156 268.351562 L 69.046875 268.351562 C 68.640625 268.351562 68.238281 268.3125 67.839844 268.234375 C 67.445312 268.15625 67.058594 268.039062 66.683594 267.882812 C 66.308594 267.730469 65.953125 267.539062 65.617188 267.3125 C 65.28125 267.089844 64.96875 266.832031 64.683594 266.546875 C 64.394531 266.257812 64.140625 265.949219 63.914062 265.609375 C 63.691406 265.273438 63.5 264.917969 63.34375 264.542969 C 63.191406 264.167969 63.074219 263.785156 62.992188 263.386719 C 62.914062 262.988281 62.875 262.589844 62.875 262.183594 Z M 70.027344 317.027344 C 69.503906 317.550781 68.949219 318.03125 68.355469 318.46875 C 67.761719 318.910156 67.140625 319.304688 66.492188 319.652344 C 65.839844 320 65.167969 320.300781 64.472656 320.546875 C 63.777344 320.796875 63.070312 320.996094 62.34375 321.136719 C 61.621094 321.28125 60.890625 321.371094 60.152344 321.410156 C 59.417969 321.445312 58.679688 321.429688 57.945312 321.355469 C 57.210938 321.285156 56.488281 321.15625 55.769531 320.976562 C 55.054688 320.796875 54.355469 320.566406 53.675781 320.285156 C 52.992188 320.003906 52.335938 319.671875 51.703125 319.292969 C 51.070312 318.914062 50.46875 318.488281 49.898438 318.019531 C 49.328125 317.550781 48.792969 317.042969 48.300781 316.496094 C 47.804688 315.949219 47.351562 315.371094 46.941406 314.753906 C 46.53125 314.140625 46.167969 313.5 45.855469 312.832031 C 45.539062 312.167969 45.277344 311.480469 45.0625 310.773438 C 44.847656 310.066406 44.6875 309.347656 44.582031 308.617188 C 44.472656 307.886719 44.417969 307.152344 44.421875 306.414062 L 44.421875 113.796875 C 44.425781 113.257812 44.480469 112.726562 44.589844 112.195312 C 44.695312 111.667969 44.855469 111.15625 45.066406 110.660156 C 45.273438 110.164062 45.527344 109.691406 45.832031 109.242188 C 46.132812 108.796875 46.472656 108.382812 46.855469 108.003906 C 47.238281 107.625 47.65625 107.285156 48.101562 106.984375 C 48.550781 106.6875 49.027344 106.4375 49.523438 106.230469 C 50.023438 106.023438 50.535156 105.871094 51.066406 105.765625 C 51.59375 105.660156 52.128906 105.609375 52.667969 105.609375 L 55.953125 105.609375 L 55.953125 262.183594 C 55.953125 263.042969 56.039062 263.894531 56.207031 264.738281 C 56.375 265.578125 56.621094 266.398438 56.949219 267.191406 C 57.28125 267.988281 57.683594 268.742188 58.160156 269.457031 C 58.636719 270.171875 59.179688 270.832031 59.789062 271.441406 C 60.398438 272.046875 61.058594 272.589844 61.773438 273.066406 C 62.488281 273.546875 63.242188 273.949219 64.035156 274.277344 C 64.828125 274.605469 65.648438 274.855469 66.492188 275.023438 C 67.335938 275.191406 68.1875 275.273438 69.046875 275.273438 L 74.410156 275.273438 L 74.410156 306.414062 C 74.410156 308.40625 74.03125 310.320312 73.273438 312.15625 C 72.515625 313.996094 71.429688 315.621094 70.027344 317.027344 Z M 81.328125 306.414062 L 81.328125 155.261719 C 81.328125 154.585938 81.394531 153.914062 81.527344 153.25 C 81.660156 152.582031 81.855469 151.9375 82.113281 151.3125 C 82.375 150.6875 82.691406 150.089844 83.070312 149.527344 C 83.445312 148.964844 83.875 148.441406 84.351562 147.964844 C 84.832031 147.484375 85.355469 147.054688 85.917969 146.679688 C 86.480469 146.300781 87.074219 145.984375 87.703125 145.726562 C 88.328125 145.464844 88.972656 145.269531 89.636719 145.136719 C 90.304688 145.003906 90.972656 144.9375 91.652344 144.9375 L 301.570312 144.9375 C 302.25 144.9375 302.921875 145.003906 303.585938 145.136719 C 304.25 145.269531 304.894531 145.464844 305.523438 145.726562 C 306.148438 145.984375 306.742188 146.300781 307.304688 146.679688 C 307.871094 147.054688 308.390625 147.484375 308.871094 147.964844 C 309.351562 148.441406 309.777344 148.964844 310.15625 149.527344 C 310.53125 150.089844 310.847656 150.6875 311.109375 151.3125 C 311.367188 151.9375 311.5625 152.582031 311.695312 153.25 C 311.828125 153.914062 311.894531 154.585938 311.894531 155.261719 L 311.894531 198.628906 L 303.417969 202.148438 C 301.164062 199.664062 298.742188 197.355469 296.152344 195.226562 L 300.820312 182.539062 C 300.953125 182.179688 301.019531 181.804688 301.023438 181.417969 C 301.027344 181.035156 300.972656 180.660156 300.851562 180.292969 C 300.730469 179.929688 300.554688 179.59375 300.324219 179.285156 C 300.089844 178.980469 299.816406 178.71875 299.496094 178.503906 C 297.1875 176.890625 294.765625 175.445312 292.402344 174.121094 C 290.039062 172.792969 287.328125 171.523438 284.730469 170.429688 C 284.378906 170.277344 284.011719 170.183594 283.625 170.15625 C 283.242188 170.128906 282.863281 170.164062 282.492188 170.261719 C 282.121094 170.363281 281.777344 170.519531 281.457031 170.734375 C 281.140625 170.953125 280.867188 171.214844 280.636719 171.523438 L 272.449219 182.308594 C 269.269531 181.316406 266.039062 180.53125 262.757812 179.945312 L 260.453125 166.679688 C 260.390625 166.296875 260.265625 165.933594 260.078125 165.59375 C 259.890625 165.253906 259.65625 164.949219 259.367188 164.6875 C 259.078125 164.425781 258.757812 164.21875 258.398438 164.066406 C 258.042969 163.914062 257.667969 163.824219 257.28125 163.796875 C 251.65625 163.382812 246.042969 163.515625 240.441406 164.203125 C 240.058594 164.253906 239.695312 164.363281 239.347656 164.53125 C 239 164.703125 238.691406 164.921875 238.414062 165.191406 C 238.140625 165.460938 237.914062 165.769531 237.738281 166.113281 C 237.5625 166.457031 237.445312 166.820312 237.382812 167.199219 L 235.769531 180.578125 C 232.472656 181.292969 229.246094 182.234375 226.082031 183.40625 L 217.488281 173.082031 C 217.242188 172.785156 216.957031 172.535156 216.628906 172.335938 C 216.300781 172.132812 215.945312 171.992188 215.570312 171.90625 C 215.195312 171.824219 214.816406 171.804688 214.433594 171.847656 C 214.050781 171.890625 213.683594 171.996094 213.335938 172.160156 C 208.246094 174.609375 203.4375 177.53125 198.917969 180.925781 C 198.613281 181.15625 198.351562 181.429688 198.132812 181.75 C 197.917969 182.066406 197.757812 182.410156 197.652344 182.777344 C 197.550781 183.148438 197.507812 183.523438 197.527344 183.910156 C 197.542969 184.292969 197.625 184.664062 197.765625 185.019531 L 203.011719 197.417969 C 200.554688 199.699219 198.25 202.121094 196.09375 204.6875 L 183.40625 200.070312 C 183.046875 199.941406 182.675781 199.867188 182.292969 199.859375 C 181.910156 199.851562 181.535156 199.902344 181.171875 200.015625 C 180.804688 200.132812 180.46875 200.304688 180.160156 200.53125 C 179.851562 200.757812 179.585938 201.027344 179.367188 201.339844 C 177.8125 203.707031 176.3125 206.128906 174.984375 208.550781 C 173.609375 211.023438 172.359375 213.5625 171.238281 216.160156 C 171.097656 216.515625 171.019531 216.886719 170.996094 217.265625 C 170.976562 217.644531 171.015625 218.019531 171.113281 218.390625 C 171.210938 218.757812 171.363281 219.101562 171.574219 219.421875 C 171.78125 219.738281 172.035156 220.019531 172.332031 220.257812 L 183.175781 228.445312 C 182.597656 230.175781 182.136719 231.847656 181.734375 233.578125 C 181.347656 235.082031 181.039062 236.601562 180.808594 238.132812 L 167.488281 240.5 C 167.113281 240.5625 166.757812 240.6875 166.421875 240.867188 C 166.089844 241.050781 165.792969 241.285156 165.535156 241.566406 C 165.28125 241.847656 165.078125 242.164062 164.929688 242.515625 C 164.777344 242.867188 164.691406 243.234375 164.664062 243.613281 C 164.21875 249.238281 164.351562 254.851562 165.066406 260.453125 C 165.109375 260.835938 165.214844 261.199219 165.382812 261.546875 C 165.550781 261.894531 165.769531 262.203125 166.042969 262.476562 C 166.3125 262.75 166.625 262.96875 166.96875 263.136719 C 167.316406 263.304688 167.683594 263.410156 168.066406 263.453125 L 181.445312 265.183594 C 182.15625 268.460938 183.097656 271.671875 184.269531 274.8125 L 173.890625 283.40625 C 173.597656 283.65625 173.355469 283.945312 173.15625 284.273438 C 172.960938 284.605469 172.824219 284.957031 172.746094 285.332031 C 172.667969 285.710938 172.652344 286.085938 172.699219 286.46875 C 172.75 286.851562 172.855469 287.210938 173.023438 287.558594 C 175.460938 292.660156 178.382812 297.464844 181.789062 301.976562 C 182.019531 302.285156 182.292969 302.546875 182.613281 302.765625 C 182.929688 302.980469 183.273438 303.140625 183.648438 303.238281 C 184.019531 303.339844 184.394531 303.375 184.78125 303.34375 C 185.164062 303.316406 185.53125 303.226562 185.886719 303.070312 L 198.285156 297.878906 C 200.550781 300.332031 202.972656 302.621094 205.550781 304.742188 L 200.9375 317.429688 C 200.796875 317.78125 200.722656 318.144531 200.707031 318.523438 C 200.691406 318.902344 200.738281 319.269531 200.847656 319.632812 C 200.957031 319.992188 201.125 320.324219 201.347656 320.628906 C 201.570312 320.9375 201.835938 321.195312 202.148438 321.410156 L 75.390625 321.410156 C 76.339844 320.40625 77.183594 319.324219 77.929688 318.160156 C 78.671875 316.996094 79.296875 315.769531 79.804688 314.484375 C 80.3125 313.203125 80.695312 311.878906 80.953125 310.523438 C 81.210938 309.167969 81.335938 307.796875 81.328125 306.414062 Z M 226.484375 321.410156 L 229.253906 317.71875 C 232.445312 318.746094 235.691406 319.535156 239 320.082031 L 239.230469 321.410156 Z M 265.757812 321.410156 L 265.988281 319.449219 C 269.265625 318.738281 272.476562 317.796875 275.621094 316.625 L 279.597656 321.410156 Z M 297.9375 320.777344 C 299.4375 319.796875 300.878906 318.816406 302.261719 317.71875 C 302.5625 317.480469 302.8125 317.203125 303.023438 316.882812 C 303.230469 316.5625 303.386719 316.21875 303.484375 315.851562 C 303.582031 315.484375 303.621094 315.109375 303.597656 314.726562 C 303.578125 314.347656 303.5 313.980469 303.359375 313.625 L 298.6875 302.609375 C 301.144531 300.332031 303.453125 297.90625 305.609375 295.34375 L 311.894531 297.59375 L 311.894531 302.609375 C 311.894531 303.636719 311.8125 304.660156 311.644531 305.675781 C 311.476562 306.691406 311.226562 307.683594 310.894531 308.65625 C 310.5625 309.632812 310.15625 310.574219 309.671875 311.480469 C 309.183594 312.386719 308.628906 313.246094 308.003906 314.0625 C 307.375 314.878906 306.6875 315.636719 305.9375 316.339844 C 305.183594 317.042969 304.382812 317.679688 303.523438 318.25 C 302.667969 318.820312 301.773438 319.320312 300.835938 319.742188 C 299.898438 320.167969 298.933594 320.511719 297.9375 320.777344 Z M 330.347656 253.1875 L 317.316406 255.492188 C 316.957031 255.550781 316.617188 255.664062 316.292969 255.832031 C 315.972656 255.996094 315.683594 256.210938 315.429688 256.46875 C 315.175781 256.730469 314.96875 257.023438 314.804688 257.347656 C 314.644531 257.675781 314.539062 258.015625 314.488281 258.375 C 314.203125 260.589844 313.800781 262.78125 313.277344 264.949219 C 312.726562 267.234375 312.050781 269.484375 311.261719 271.699219 C 311.128906 272.042969 311.058594 272.398438 311.046875 272.769531 C 311.03125 273.136719 311.078125 273.496094 311.183594 273.851562 C 311.285156 274.207031 311.445312 274.535156 311.652344 274.835938 C 311.863281 275.136719 312.117188 275.398438 312.414062 275.621094 L 322.910156 283.578125 C 322.21875 285.15625 321.46875 286.652344 320.660156 288.078125 C 319.851562 289.574219 318.988281 291.074219 318.066406 292.515625 L 305.667969 287.960938 C 305.316406 287.835938 304.953125 287.765625 304.582031 287.753906 C 304.210938 287.742188 303.847656 287.785156 303.488281 287.890625 C 303.132812 287.992188 302.796875 288.148438 302.492188 288.359375 C 302.183594 288.570312 301.914062 288.820312 301.6875 289.113281 C 298.929688 292.757812 295.792969 296.046875 292.285156 298.976562 C 292.003906 299.214844 291.765625 299.488281 291.574219 299.804688 C 291.382812 300.117188 291.246094 300.453125 291.160156 300.8125 C 291.078125 301.171875 291.054688 301.535156 291.089844 301.898438 C 291.125 302.265625 291.214844 302.617188 291.363281 302.957031 L 295.917969 313.796875 C 293.023438 315.824219 290.003906 317.648438 286.867188 319.277344 L 279.3125 310.28125 C 279.078125 310.003906 278.804688 309.769531 278.496094 309.578125 C 278.191406 309.386719 277.859375 309.246094 277.507812 309.15625 C 277.15625 309.070312 276.800781 309.039062 276.4375 309.0625 C 276.074219 309.085938 275.726562 309.164062 275.390625 309.300781 C 271.152344 311.015625 266.789062 312.304688 262.296875 313.164062 C 261.933594 313.21875 261.585938 313.332031 261.257812 313.5 C 260.933594 313.667969 260.640625 313.886719 260.386719 314.152344 C 260.128906 314.417969 259.921875 314.71875 259.765625 315.054688 C 259.609375 315.386719 259.511719 315.738281 259.472656 316.105469 L 257.800781 329.253906 C 254.421875 329.5625 251.039062 329.636719 247.648438 329.484375 L 245.402344 316.449219 C 245.328125 316.09375 245.207031 315.753906 245.03125 315.433594 C 244.855469 315.117188 244.636719 314.828125 244.371094 314.578125 C 244.109375 314.324219 243.816406 314.117188 243.488281 313.953125 C 243.164062 313.792969 242.820312 313.683594 242.460938 313.625 C 237.925781 313.011719 233.503906 311.933594 229.195312 310.394531 C 228.847656 310.273438 228.488281 310.210938 228.117188 310.203125 C 227.75 310.195312 227.386719 310.246094 227.035156 310.355469 C 226.683594 310.464844 226.355469 310.625 226.054688 310.839844 C 225.753906 311.054688 225.492188 311.308594 225.273438 311.605469 L 217.257812 322.101562 L 212.757812 319.796875 C 211.261719 318.988281 209.816406 318.121094 208.375 317.199219 L 212.933594 304.800781 C 213.0625 304.457031 213.132812 304.097656 213.144531 303.730469 C 213.160156 303.363281 213.113281 303 213.011719 302.648438 C 212.90625 302.292969 212.75 301.964844 212.539062 301.664062 C 212.328125 301.359375 212.074219 301.101562 211.777344 300.878906 C 208.164062 298.074219 204.855469 294.941406 201.859375 291.480469 C 201.628906 291.195312 201.363281 290.957031 201.050781 290.761719 C 200.742188 290.570312 200.410156 290.429688 200.058594 290.347656 C 199.703125 290.261719 199.34375 290.238281 198.980469 290.273438 C 198.617188 290.3125 198.269531 290.40625 197.9375 290.554688 L 185.710938 295.632812 C 183.785156 292.855469 182.035156 289.972656 180.464844 286.980469 L 190.613281 278.503906 C 190.898438 278.265625 191.136719 277.992188 191.332031 277.679688 C 191.527344 277.367188 191.667969 277.03125 191.757812 276.675781 C 191.84375 276.316406 191.875 275.953125 191.847656 275.585938 C 191.820312 275.21875 191.734375 274.863281 191.59375 274.523438 C 189.855469 270.292969 188.566406 265.929688 187.730469 261.433594 C 187.675781 261.070312 187.5625 260.722656 187.394531 260.394531 C 187.222656 260.066406 187.007812 259.777344 186.742188 259.519531 C 186.476562 259.265625 186.175781 259.058594 185.839844 258.902344 C 185.507812 258.746094 185.15625 258.648438 184.789062 258.605469 L 171.640625 256.933594 C 171.332031 253.574219 171.257812 250.210938 171.410156 246.84375 L 184.445312 244.535156 C 184.8125 244.476562 185.160156 244.355469 185.488281 244.179688 C 185.816406 244.007812 186.105469 243.785156 186.363281 243.511719 C 186.617188 243.242188 186.824219 242.9375 186.976562 242.597656 C 187.132812 242.261719 187.230469 241.90625 187.269531 241.535156 C 187.558594 239.519531 187.960938 237.382812 188.421875 235.136719 C 188.882812 232.886719 189.632812 230.753906 190.5 228.332031 C 190.625 227.984375 190.691406 227.628906 190.703125 227.261719 C 190.714844 226.894531 190.667969 226.535156 190.5625 226.179688 C 190.460938 225.828125 190.304688 225.5 190.09375 225.199219 C 189.886719 224.894531 189.636719 224.632812 189.34375 224.410156 L 178.734375 216.394531 C 179.425781 214.894531 180.234375 213.394531 181.039062 211.894531 C 181.847656 210.394531 182.714844 208.953125 183.636719 207.511719 L 196.09375 212.066406 C 196.4375 212.191406 196.796875 212.261719 197.164062 212.269531 C 197.53125 212.28125 197.890625 212.234375 198.242188 212.132812 C 198.59375 212.027344 198.921875 211.871094 199.226562 211.664062 C 199.527344 211.457031 199.792969 211.207031 200.015625 210.914062 C 202.785156 207.265625 205.921875 203.957031 209.414062 200.996094 C 209.691406 200.753906 209.925781 200.476562 210.117188 200.164062 C 210.304688 199.847656 210.441406 199.511719 210.527344 199.15625 C 210.609375 198.796875 210.632812 198.4375 210.601562 198.070312 C 210.570312 197.703125 210.480469 197.351562 210.335938 197.015625 L 205.203125 184.90625 C 208 182.957031 210.902344 181.191406 213.914062 179.597656 L 222.390625 189.75 C 222.625 190.035156 222.898438 190.277344 223.207031 190.476562 C 223.519531 190.675781 223.855469 190.816406 224.214844 190.90625 C 224.574219 190.992188 224.9375 191.023438 225.308594 190.992188 C 225.675781 190.964844 226.03125 190.875 226.371094 190.730469 C 230.597656 188.996094 234.960938 187.726562 239.460938 186.921875 C 239.824219 186.859375 240.171875 186.738281 240.496094 186.558594 C 240.824219 186.382812 241.113281 186.160156 241.367188 185.890625 C 241.625 185.621094 241.828125 185.316406 241.984375 184.980469 C 242.144531 184.644531 242.242188 184.292969 242.285156 183.925781 L 243.960938 170.777344 C 247.335938 170.496094 250.722656 170.417969 254.109375 170.546875 L 256.359375 183.578125 C 256.425781 183.9375 256.546875 184.277344 256.722656 184.597656 C 256.894531 184.921875 257.113281 185.207031 257.378906 185.460938 C 257.640625 185.714844 257.9375 185.921875 258.265625 186.082031 C 258.59375 186.242188 258.9375 186.351562 259.300781 186.402344 C 263.8125 187.03125 268.214844 188.109375 272.503906 189.632812 C 272.851562 189.761719 273.207031 189.835938 273.574219 189.847656 C 273.945312 189.859375 274.304688 189.816406 274.660156 189.710938 C 275.011719 189.609375 275.339844 189.449219 275.644531 189.238281 C 275.945312 189.027344 276.207031 188.777344 276.425781 188.480469 L 284.5 177.867188 L 289.058594 180.175781 L 293.382812 182.714844 L 288.828125 195.226562 C 288.699219 195.578125 288.628906 195.9375 288.617188 196.3125 C 288.605469 196.683594 288.652344 197.046875 288.753906 197.40625 C 288.859375 197.761719 289.015625 198.09375 289.222656 198.402344 C 289.433594 198.710938 289.683594 198.980469 289.980469 199.207031 C 293.605469 201.960938 296.894531 205.078125 299.839844 208.550781 C 300.078125 208.832031 300.351562 209.070312 300.664062 209.265625 C 300.976562 209.460938 301.3125 209.605469 301.671875 209.691406 C 302.027344 209.78125 302.390625 209.8125 302.757812 209.78125 C 303.125 209.753906 303.480469 209.671875 303.820312 209.53125 L 316.046875 204.398438 C 317.988281 207.164062 319.734375 210.046875 321.292969 213.046875 L 311.144531 221.527344 C 310.859375 221.757812 310.617188 222.03125 310.417969 222.34375 C 310.21875 222.65625 310.078125 222.992188 309.988281 223.351562 C 309.898438 223.710938 309.871094 224.074219 309.902344 224.441406 C 309.929688 224.8125 310.019531 225.164062 310.164062 225.503906 C 311.898438 229.734375 313.167969 234.097656 313.96875 238.597656 C 314.035156 238.960938 314.15625 239.304688 314.332031 239.632812 C 314.511719 239.960938 314.734375 240.25 315.003906 240.503906 C 315.273438 240.757812 315.578125 240.964844 315.914062 241.121094 C 316.25 241.277344 316.601562 241.378906 316.96875 241.421875 L 330.117188 243.09375 C 330.398438 246.453125 330.472656 249.816406 330.347656 253.1875 Z M 330.347656 253.1875 "/></g><path style=" stroke:none;fill-rule:nonzero;fill:#001d61;fill-opacity:1;" d="M 272.792969 209.933594 C 271.480469 209.222656 270.132812 208.574219 268.753906 207.992188 C 267.375 207.414062 265.972656 206.898438 264.542969 206.457031 C 263.117188 206.011719 261.667969 205.640625 260.203125 205.335938 C 258.738281 205.035156 257.261719 204.804688 255.777344 204.644531 C 254.289062 204.488281 252.796875 204.402344 251.300781 204.390625 C 249.804688 204.378906 248.3125 204.4375 246.824219 204.574219 C 245.332031 204.707031 243.855469 204.914062 242.382812 205.191406 C 240.914062 205.46875 239.460938 205.816406 238.027344 206.238281 C 236.589844 206.660156 235.179688 207.148438 233.792969 207.707031 C 232.40625 208.265625 231.046875 208.890625 229.71875 209.578125 C 228.394531 210.269531 227.105469 211.023438 225.851562 211.839844 C 224.597656 212.660156 223.386719 213.535156 222.222656 214.46875 C 221.054688 215.40625 219.933594 216.394531 218.863281 217.4375 C 217.792969 218.484375 216.777344 219.578125 215.8125 220.722656 C 214.851562 221.867188 213.945312 223.054688 213.097656 224.289062 C 212.25 225.519531 211.464844 226.789062 210.742188 228.101562 C 208.769531 231.683594 207.328125 235.472656 206.414062 239.460938 C 205.953125 241.398438 205.617188 243.359375 205.410156 245.34375 C 205.203125 247.328125 205.128906 249.3125 205.183594 251.308594 C 205.238281 253.300781 205.421875 255.28125 205.734375 257.25 C 206.050781 259.21875 206.492188 261.15625 207.058594 263.070312 C 207.628906 264.980469 208.316406 266.84375 209.128906 268.664062 C 209.945312 270.484375 210.871094 272.246094 211.914062 273.945312 C 212.957031 275.640625 214.109375 277.265625 215.367188 278.8125 C 216.621094 280.363281 217.972656 281.820312 219.421875 283.191406 C 220.867188 284.5625 222.398438 285.832031 224.015625 287 C 225.628906 288.171875 227.3125 289.230469 229.066406 290.179688 C 230.820312 291.128906 232.625 291.960938 234.488281 292.671875 C 236.351562 293.382812 238.25 293.972656 240.191406 294.433594 C 242.128906 294.898438 244.089844 295.230469 246.074219 295.4375 C 248.054688 295.644531 250.042969 295.71875 252.035156 295.664062 C 254.027344 295.609375 256.011719 295.425781 257.980469 295.109375 C 259.945312 294.796875 261.886719 294.355469 263.796875 293.785156 C 266.675781 292.953125 269.441406 291.84375 272.097656 290.457031 C 274.753906 289.074219 277.25 287.441406 279.582031 285.558594 C 281.914062 283.679688 284.035156 281.585938 285.953125 279.28125 C 287.867188 276.976562 289.535156 274.507812 290.960938 271.871094 C 292.859375 268.324219 294.28125 264.59375 295.226562 260.683594 C 295.519531 259.476562 295.757812 258.257812 295.949219 257.027344 C 296.140625 255.800781 296.28125 254.566406 296.371094 253.328125 C 296.460938 252.085938 296.5 250.847656 296.488281 249.605469 C 296.480469 248.359375 296.417969 247.121094 296.304688 245.882812 C 296.191406 244.644531 296.03125 243.414062 295.816406 242.191406 C 295.605469 240.964844 295.34375 239.75 295.03125 238.546875 C 294.722656 237.34375 294.359375 236.15625 293.953125 234.984375 C 293.542969 233.808594 293.089844 232.652344 292.585938 231.515625 C 292.085938 230.382812 291.535156 229.265625 290.941406 228.175781 C 290.351562 227.082031 289.714844 226.015625 289.03125 224.976562 C 288.351562 223.9375 287.632812 222.925781 286.867188 221.945312 C 286.105469 220.964844 285.304688 220.015625 284.464844 219.097656 C 283.625 218.183594 282.75 217.300781 281.835938 216.457031 C 280.925781 215.613281 279.980469 214.808594 279.003906 214.039062 C 278.027344 213.273438 277.019531 212.546875 275.984375 211.859375 C 274.945312 211.175781 273.882812 210.53125 272.792969 209.933594 Z M 288.539062 259.070312 C 287.699219 262.390625 286.46875 265.5625 284.847656 268.585938 C 284.238281 269.699219 283.574219 270.777344 282.859375 271.828125 C 282.144531 272.875 281.378906 273.886719 280.566406 274.859375 C 279.75 275.832031 278.890625 276.761719 277.984375 277.652344 C 277.078125 278.539062 276.128906 279.382812 275.140625 280.175781 C 274.152344 280.972656 273.128906 281.71875 272.066406 282.414062 C 271.003906 283.109375 269.910156 283.75 268.785156 284.335938 C 267.660156 284.921875 266.507812 285.453125 265.332031 285.929688 C 264.152344 286.402344 262.957031 286.816406 261.738281 287.175781 C 260.519531 287.53125 259.289062 287.828125 258.039062 288.0625 C 256.792969 288.296875 255.539062 288.472656 254.273438 288.585938 C 253.007812 288.695312 251.742188 288.746094 250.472656 288.734375 C 249.203125 288.722656 247.9375 288.648438 246.675781 288.511719 C 245.414062 288.375 244.164062 288.175781 242.921875 287.917969 C 241.679688 287.65625 240.453125 287.335938 239.242188 286.957031 C 238.03125 286.578125 236.839844 286.136719 235.675781 285.640625 C 234.507812 285.144531 233.367188 284.589844 232.253906 283.980469 C 231.328125 283.476562 230.429688 282.933594 229.550781 282.351562 C 228.671875 281.773438 227.816406 281.15625 226.988281 280.507812 C 226.160156 279.859375 225.359375 279.175781 224.585938 278.460938 C 223.8125 277.746094 223.070312 277.003906 222.359375 276.226562 C 221.644531 275.453125 220.964844 274.652344 220.320312 273.820312 C 219.671875 272.988281 219.058594 272.136719 218.480469 271.253906 C 217.90625 270.375 217.363281 269.472656 216.859375 268.546875 C 216.355469 267.625 215.890625 266.679688 215.460938 265.71875 C 215.035156 264.757812 214.648438 263.78125 214.300781 262.785156 C 213.953125 261.792969 213.644531 260.785156 213.378906 259.765625 C 213.113281 258.75 212.886719 257.722656 212.707031 256.683594 C 212.523438 255.648438 212.382812 254.605469 212.285156 253.558594 C 212.1875 252.507812 212.132812 251.457031 212.121094 250.40625 C 212.109375 249.351562 212.140625 248.300781 212.214844 247.25 C 212.285156 246.203125 212.402344 245.15625 212.5625 244.117188 C 212.71875 243.074219 212.921875 242.042969 213.164062 241.019531 C 213.925781 237.644531 215.15625 234.457031 216.855469 231.445312 C 217.410156 230.425781 218.015625 229.433594 218.660156 228.46875 C 219.308594 227.503906 219.996094 226.570312 220.726562 225.667969 C 221.460938 224.765625 222.230469 223.898438 223.039062 223.066406 C 223.847656 222.230469 224.691406 221.4375 225.574219 220.679688 C 226.453125 219.921875 227.367188 219.203125 228.3125 218.527344 C 229.253906 217.855469 230.230469 217.222656 231.230469 216.632812 C 232.234375 216.046875 233.257812 215.503906 234.308594 215.007812 C 235.359375 214.511719 236.429688 214.066406 237.519531 213.667969 C 238.613281 213.265625 239.71875 212.917969 240.839844 212.617188 C 241.960938 212.316406 243.09375 212.070312 244.238281 211.871094 C 245.382812 211.671875 246.535156 211.527344 247.691406 211.433594 C 248.851562 211.335938 250.011719 211.296875 251.171875 211.304688 C 252.332031 211.316406 253.492188 211.375 254.648438 211.492188 C 255.804688 211.605469 256.953125 211.769531 258.09375 211.988281 C 259.234375 212.203125 260.363281 212.472656 261.480469 212.792969 C 262.597656 213.109375 263.699219 213.476562 264.78125 213.894531 C 265.863281 214.3125 266.929688 214.777344 267.96875 215.292969 C 269.011719 215.804688 270.027344 216.363281 271.019531 216.96875 C 272.011719 217.574219 272.972656 218.222656 273.90625 218.914062 C 274.839844 219.605469 275.742188 220.335938 276.609375 221.109375 C 277.476562 221.878906 278.308594 222.691406 279.101562 223.535156 C 279.898438 224.382812 280.652344 225.265625 281.371094 226.179688 C 282.085938 227.09375 282.757812 228.039062 283.390625 229.015625 C 284.019531 229.988281 284.605469 230.992188 285.144531 232.019531 C 285.6875 233.046875 286.179688 234.097656 286.625 235.167969 C 287.074219 236.242188 287.46875 237.332031 287.816406 238.441406 C 288.164062 239.546875 288.464844 240.671875 288.710938 241.804688 C 288.957031 242.941406 289.15625 244.082031 289.300781 245.234375 C 289.445312 246.386719 289.535156 247.546875 289.578125 248.707031 C 289.617188 249.867188 289.605469 251.027344 289.542969 252.1875 C 289.476562 253.347656 289.363281 254.5 289.195312 255.648438 C 289.027344 256.800781 288.808594 257.9375 288.539062 259.070312 Z M 288.539062 259.070312 "/><path style=" stroke:none;fill-rule:nonzero;fill:#001d61;fill-opacity:1;" d="M 260.28125 232.769531 C 259.714844 232.464844 259.136719 232.1875 258.542969 231.9375 C 257.949219 231.6875 257.347656 231.46875 256.730469 231.277344 C 256.117188 231.085938 255.496094 230.925781 254.867188 230.796875 C 254.234375 230.667969 253.601562 230.566406 252.960938 230.5 C 252.324219 230.429688 251.679688 230.394531 251.039062 230.386719 C 250.394531 230.382812 249.753906 230.410156 249.113281 230.464844 C 248.472656 230.523438 247.835938 230.609375 247.203125 230.730469 C 246.570312 230.847656 245.945312 231 245.328125 231.179688 C 244.710938 231.359375 244.105469 231.566406 243.507812 231.808594 C 242.910156 232.046875 242.328125 232.316406 241.757812 232.609375 C 241.1875 232.90625 240.628906 233.230469 240.089844 233.582031 C 239.550781 233.929688 239.03125 234.304688 238.527344 234.707031 C 238.027344 235.109375 237.542969 235.535156 237.082031 235.980469 C 236.621094 236.429688 236.183594 236.898438 235.765625 237.390625 C 235.351562 237.882812 234.960938 238.390625 234.597656 238.917969 C 234.230469 239.449219 233.890625 239.996094 233.578125 240.554688 C 232.714844 242.097656 232.101562 243.730469 231.734375 245.457031 C 231.488281 246.5 231.328125 247.554688 231.253906 248.621094 C 231.179688 249.6875 231.195312 250.753906 231.292969 251.820312 C 231.394531 252.886719 231.578125 253.933594 231.851562 254.96875 C 232.121094 256.003906 232.472656 257.011719 232.90625 257.988281 C 233.34375 258.964844 233.851562 259.902344 234.441406 260.796875 C 235.027344 261.691406 235.683594 262.53125 236.40625 263.320312 C 237.128906 264.109375 237.910156 264.832031 238.753906 265.492188 C 239.59375 266.152344 240.484375 266.742188 241.421875 267.257812 C 244.355469 268.839844 247.488281 269.648438 250.820312 269.679688 C 252.722656 269.667969 254.589844 269.398438 256.414062 268.871094 C 257.652344 268.503906 258.84375 268.023438 259.988281 267.421875 C 261.128906 266.820312 262.203125 266.117188 263.207031 265.304688 C 264.210938 264.492188 265.125 263.589844 265.953125 262.601562 C 266.78125 261.609375 267.503906 260.546875 268.121094 259.414062 C 268.925781 257.890625 269.539062 256.296875 269.96875 254.628906 C 270.21875 253.585938 270.378906 252.527344 270.457031 251.457031 C 270.53125 250.386719 270.519531 249.320312 270.421875 248.25 C 270.324219 247.183594 270.140625 246.128906 269.871094 245.09375 C 269.601562 244.054688 269.246094 243.042969 268.8125 242.0625 C 268.378906 241.082031 267.867188 240.144531 267.28125 239.246094 C 266.691406 238.351562 266.035156 237.507812 265.308594 236.71875 C 264.585938 235.925781 263.800781 235.199219 262.957031 234.539062 C 262.113281 233.875 261.21875 233.289062 260.28125 232.769531 Z M 263.222656 252.957031 C 262.9375 254.039062 262.535156 255.078125 262.011719 256.070312 C 261.613281 256.804688 261.144531 257.492188 260.609375 258.132812 C 260.078125 258.773438 259.484375 259.359375 258.835938 259.882812 C 258.1875 260.40625 257.492188 260.863281 256.753906 261.253906 C 256.011719 261.640625 255.242188 261.953125 254.441406 262.1875 C 253.640625 262.421875 252.824219 262.578125 251.992188 262.652344 C 251.160156 262.726562 250.332031 262.71875 249.5 262.628906 C 248.671875 262.542969 247.855469 262.371094 247.058594 262.121094 C 246.261719 261.871094 245.5 261.546875 244.765625 261.144531 C 244.15625 260.8125 243.578125 260.433594 243.027344 260.007812 C 242.480469 259.582031 241.96875 259.113281 241.5 258.605469 C 241.027344 258.09375 240.601562 257.550781 240.21875 256.96875 C 239.835938 256.390625 239.503906 255.78125 239.222656 255.148438 C 238.941406 254.515625 238.710938 253.859375 238.535156 253.1875 C 238.359375 252.515625 238.242188 251.835938 238.179688 251.144531 C 238.117188 250.453125 238.109375 249.757812 238.160156 249.066406 C 238.210938 248.375 238.316406 247.691406 238.480469 247.015625 C 238.722656 245.914062 239.125 244.875 239.691406 243.902344 C 240.242188 242.898438 240.917969 241.988281 241.710938 241.164062 C 242.507812 240.34375 243.398438 239.640625 244.378906 239.058594 C 245.363281 238.476562 246.40625 238.03125 247.511719 237.730469 C 248.613281 237.425781 249.734375 237.273438 250.878906 237.269531 C 251.359375 237.273438 251.835938 237.300781 252.308594 237.355469 C 252.785156 237.414062 253.253906 237.496094 253.71875 237.601562 C 254.183594 237.710938 254.644531 237.847656 255.09375 238.007812 C 255.542969 238.167969 255.984375 238.351562 256.414062 238.5625 C 256.84375 238.773438 257.261719 239.007812 257.664062 239.261719 C 258.066406 239.519531 258.453125 239.796875 258.828125 240.097656 C 259.199219 240.398438 259.554688 240.71875 259.890625 241.058594 C 260.226562 241.398438 260.539062 241.757812 260.835938 242.132812 C 261.132812 242.507812 261.40625 242.902344 261.65625 243.308594 C 261.910156 243.714844 262.136719 244.132812 262.339844 244.566406 C 262.546875 244.996094 262.726562 245.441406 262.878906 245.894531 C 263.035156 246.34375 263.164062 246.804688 263.265625 247.273438 C 263.371094 247.738281 263.445312 248.210938 263.496094 248.6875 C 263.546875 249.160156 263.566406 249.636719 263.566406 250.117188 C 263.5625 250.59375 263.53125 251.070312 263.472656 251.546875 C 263.414062 252.019531 263.332031 252.492188 263.222656 252.957031 Z M 263.222656 252.957031 "/></g></svg>