<svg xmlns="http://www.w3.org/2000/svg" xmlns:xlink="http://www.w3.org/1999/xlink" width="500" zoomAndPan="magnify" viewBox="0 0 375 374.999991" height="500" preserveAspectRatio="xMidYMid meet" version="1.2"><defs><clipPath id="9446aaedd7"><path d="M 37.5 37.5 L 337.5 37.5 L 337.5 337.5 L 37.5 337.5 Z M 37.5 37.5 "/></clipPath></defs><g id="1300693f17"><path style=" stroke:none;fill-rule:nonzero;fill:#001d61;fill-opacity:1;" d="M 50.082031 173.320312 C 50.082031 174.636719 51.148438 175.703125 52.464844 175.703125 L 82.730469 175.703125 C 84.046875 175.703125 85.113281 174.636719 85.113281 173.320312 C 85.113281 172.007812 84.046875 170.941406 82.730469 170.941406 L 52.464844 170.941406 C 51.148438 170.941406 50.082031 172.007812 50.082031 173.320312 Z M 50.082031 173.320312 "/><path style=" stroke:none;fill-rule:nonzero;fill:#001d61;fill-opacity:1;" d="M 82.730469 185.117188 L 52.464844 185.117188 C 51.148438 185.117188 50.082031 186.183594 50.082031 187.5 C 50.082031 188.816406 51.148438 189.882812 52.464844 189.882812 L 82.730469 189.882812 C 84.046875 189.882812 85.113281 188.816406 85.113281 187.5 C 85.113281 186.183594 84.046875 185.117188 82.730469 185.117188 Z M 82.730469 185.117188 "/><path style=" stroke:none;fill-rule:nonzero;fill:#001d61;fill-opacity:1;" d="M 82.730469 199.296875 L 52.464844 199.296875 C 51.148438 199.296875 50.082031 200.363281 50.082031 201.679688 C 50.082031 202.992188 51.148438 204.058594 52.464844 204.058594 L 82.730469 204.058594 C 84.046875 204.058594 85.113281 202.992188 85.113281 201.679688 C 85.113281 200.363281 84.046875 199.296875 82.730469 199.296875 Z M 82.730469 199.296875 "/><path style=" stroke:none;fill-rule:nonzero;fill:#001d61;fill-opacity:1;" d="M 50.082031 278.886719 C 50.082031 280.203125 51.148438 281.269531 52.464844 281.269531 L 82.730469 281.269531 C 84.046875 281.269531 85.113281 280.203125 85.113281 278.886719 C 85.113281 277.570312 84.046875 276.507812 82.730469 276.507812 L 52.464844 276.507812 C 51.148438 276.507812 50.082031 277.570312 50.082031 278.886719 Z M 50.082031 278.886719 "/><path style=" stroke:none;fill-rule:nonzero;fill:#001d61;fill-opacity:1;" d="M 82.730469 290.683594 L 52.464844 290.683594 C 51.148438 290.683594 50.082031 291.75 50.082031 293.066406 C 50.082031 294.378906 51.148438 295.445312 52.464844 295.445312 L 82.730469 295.445312 C 84.046875 295.445312 85.113281 294.378906 85.113281 293.066406 C 85.113281 291.75 84.046875 290.683594 82.730469 290.683594 Z M 82.730469 290.683594 "/><path style=" stroke:none;fill-rule:nonzero;fill:#001d61;fill-opacity:1;" d="M 82.730469 304.863281 L 52.464844 304.863281 C 51.148438 304.863281 50.082031 305.929688 50.082031 307.242188 C 50.082031 308.558594 51.148438 309.625 52.464844 309.625 L 82.730469 309.625 C 84.046875 309.625 85.113281 308.558594 85.113281 307.242188 C 85.113281 305.929688 84.046875 304.863281 82.730469 304.863281 Z M 82.730469 304.863281 "/><path style=" stroke:none;fill-rule:nonzero;fill:#001d61;fill-opacity:1;" d="M 50.082031 67.757812 C 50.082031 69.070312 51.148438 70.136719 52.464844 70.136719 L 82.730469 70.136719 C 84.046875 70.136719 85.113281 69.070312 85.113281 67.757812 C 85.113281 66.441406 84.046875 65.375 82.730469 65.375 L 52.464844 65.375 C 51.148438 65.375 50.082031 66.441406 50.082031 67.757812 Z M 50.082031 67.757812 "/><path style=" stroke:none;fill-rule:nonzero;fill:#001d61;fill-opacity:1;" d="M 82.730469 79.554688 L 52.464844 79.554688 C 51.148438 79.554688 50.082031 80.621094 50.082031 81.933594 C 50.082031 83.25 51.148438 84.316406 52.464844 84.316406 L 82.730469 84.316406 C 84.046875 84.316406 85.113281 83.25 85.113281 81.933594 C 85.113281 80.621094 84.046875 79.554688 82.730469 79.554688 Z M 82.730469 79.554688 "/><path style=" stroke:none;fill-rule:nonzero;fill:#001d61;fill-opacity:1;" d="M 82.730469 93.730469 L 52.464844 93.730469 C 51.148438 93.730469 50.082031 94.796875 50.082031 96.113281 C 50.082031 97.429688 51.148438 98.492188 52.464844 98.492188 L 82.730469 98.492188 C 84.046875 98.492188 85.113281 97.429688 85.113281 96.113281 C 85.113281 94.796875 84.046875 93.730469 82.730469 93.730469 Z M 82.730469 93.730469 "/><path style=" stroke:none;fill-rule:nonzero;fill:#001d61;fill-opacity:1;" d="M 228.980469 170.875 C 230.296875 170.875 231.363281 169.808594 231.363281 168.492188 L 231.363281 139.613281 L 260.242188 139.613281 C 261.558594 139.613281 262.625 138.546875 262.625 137.230469 C 262.625 118.679688 247.53125 103.589844 228.980469 103.589844 C 210.433594 103.589844 195.34375 118.679688 195.34375 137.230469 C 195.34375 155.785156 210.433594 170.875 228.980469 170.875 Z M 228.980469 170.875 "/><path style=" stroke:none;fill-rule:nonzero;fill:#001d61;fill-opacity:1;" d="M 236.160156 147.441406 L 236.160156 178.695312 C 236.160156 180.011719 237.226562 181.078125 238.542969 181.078125 C 257.09375 181.078125 272.183594 165.988281 272.183594 147.441406 C 272.183594 146.125 271.117188 145.058594 269.804688 145.058594 L 238.542969 145.058594 C 237.226562 145.058594 236.160156 146.125 236.160156 147.441406 Z M 236.160156 147.441406 "/><path style=" stroke:none;fill-rule:nonzero;fill:#001d61;fill-opacity:1;" d="M 265.570312 119.839844 L 300.605469 119.839844 C 301.921875 119.839844 302.988281 118.773438 302.988281 117.457031 C 302.988281 116.144531 301.921875 115.078125 300.605469 115.078125 L 265.570312 115.078125 C 264.257812 115.078125 263.191406 116.144531 263.191406 117.457031 C 263.191406 118.773438 264.257812 119.839844 265.570312 119.839844 Z M 265.570312 119.839844 "/><path style=" stroke:none;fill-rule:nonzero;fill:#001d61;fill-opacity:1;" d="M 300.605469 134.523438 C 301.921875 134.523438 302.988281 133.457031 302.988281 132.144531 C 302.988281 130.828125 301.921875 129.761719 300.605469 129.761719 L 271.464844 129.761719 C 270.148438 129.761719 269.082031 130.828125 269.082031 132.144531 C 269.082031 133.457031 270.148438 134.523438 271.464844 134.523438 Z M 300.605469 134.523438 "/><path style=" stroke:none;fill-rule:nonzero;fill:#001d61;fill-opacity:1;" d="M 197.726562 197.023438 L 223.144531 197.023438 C 224.457031 197.023438 225.523438 195.957031 225.523438 194.644531 L 225.523438 180.355469 C 225.523438 179.042969 224.457031 177.976562 223.144531 177.976562 L 197.726562 177.976562 C 196.410156 177.976562 195.34375 179.042969 195.34375 180.355469 L 195.34375 194.644531 C 195.34375 195.957031 196.410156 197.023438 197.726562 197.023438 Z M 200.105469 182.738281 L 220.761719 182.738281 L 220.761719 192.261719 L 200.105469 192.261719 Z M 200.105469 182.738281 "/><path style=" stroke:none;fill-rule:nonzero;fill:#001d61;fill-opacity:1;" d="M 301.007812 248.445312 L 296.804688 248.445312 L 296.804688 190.148438 C 296.804688 188.832031 295.738281 187.769531 294.421875 187.769531 C 293.109375 187.769531 292.042969 188.832031 292.042969 190.148438 L 292.042969 248.445312 L 285.730469 248.445312 L 285.730469 196.527344 C 285.730469 195.214844 284.667969 194.148438 283.351562 194.148438 C 282.035156 194.148438 280.96875 195.214844 280.96875 196.527344 L 280.96875 248.445312 L 274.660156 248.445312 L 274.660156 223.351562 C 274.660156 222.035156 273.59375 220.96875 272.28125 220.96875 C 270.964844 220.96875 269.898438 222.035156 269.898438 223.351562 L 269.898438 248.445312 L 263.589844 248.445312 L 263.589844 208.492188 C 263.589844 207.179688 262.523438 206.113281 261.207031 206.113281 C 259.894531 206.113281 258.828125 207.179688 258.828125 208.492188 L 258.828125 248.445312 L 252.519531 248.445312 L 252.519531 200.816406 C 252.519531 199.5 251.453125 198.433594 250.136719 198.433594 C 248.820312 198.433594 247.757812 199.5 247.757812 200.816406 L 247.757812 248.445312 L 241.445312 248.445312 L 241.445312 226.34375 C 241.445312 225.03125 240.378906 223.964844 239.066406 223.964844 C 237.75 223.964844 236.683594 225.03125 236.683594 226.34375 L 236.683594 248.445312 L 230.375 248.445312 L 230.375 204.566406 C 230.375 203.25 229.308594 202.183594 227.992188 202.183594 C 226.679688 202.183594 225.613281 203.25 225.613281 204.566406 L 225.613281 248.445312 L 219.304688 248.445312 L 219.304688 208.632812 C 219.304688 207.316406 218.238281 206.25 216.921875 206.25 C 215.609375 206.25 214.542969 207.316406 214.542969 208.632812 L 214.542969 248.445312 L 208.230469 248.445312 L 208.230469 233.523438 C 208.230469 232.207031 207.167969 231.144531 205.851562 231.144531 C 204.535156 231.144531 203.46875 232.207031 203.46875 233.523438 L 203.46875 248.445312 L 199.261719 248.445312 C 197.945312 248.445312 196.882812 249.511719 196.882812 250.828125 C 196.882812 252.140625 197.945312 253.207031 199.261719 253.207031 L 301.007812 253.207031 C 302.320312 253.207031 303.386719 252.140625 303.386719 250.828125 C 303.386719 249.511719 302.320312 248.445312 301.007812 248.445312 Z M 301.007812 248.445312 "/><path style=" stroke:none;fill-rule:nonzero;fill:#001d61;fill-opacity:1;" d="M 295.980469 259.117188 L 230.207031 259.117188 C 228.894531 259.117188 227.828125 260.183594 227.828125 261.5 C 227.828125 262.816406 228.894531 263.882812 230.207031 263.882812 L 295.980469 263.882812 C 297.296875 263.882812 298.363281 262.816406 298.363281 261.5 C 298.363281 260.183594 297.296875 259.117188 295.980469 259.117188 Z M 295.980469 259.117188 "/><path style=" stroke:none;fill-rule:nonzero;fill:#001d61;fill-opacity:1;" d="M 204.292969 263.882812 L 218.105469 263.882812 C 219.421875 263.882812 220.488281 262.816406 220.488281 261.5 C 220.488281 260.183594 219.421875 259.117188 218.105469 259.117188 L 204.292969 259.117188 C 202.976562 259.117188 201.910156 260.183594 201.910156 261.5 C 201.910156 262.816406 202.976562 263.882812 204.292969 263.882812 Z M 204.292969 263.882812 "/><path style=" stroke:none;fill-rule:nonzero;fill:#001d61;fill-opacity:1;" d="M 295.980469 269.730469 L 204.292969 269.730469 C 202.976562 269.730469 201.910156 270.796875 201.910156 272.113281 C 201.910156 273.429688 202.976562 274.492188 204.292969 274.492188 L 295.980469 274.492188 C 297.296875 274.492188 298.363281 273.429688 298.363281 272.113281 C 298.363281 270.796875 297.296875 269.730469 295.980469 269.730469 Z M 295.980469 269.730469 "/><g clip-rule="nonzero" clip-path="url(#9446aaedd7)"><path style=" stroke:none;fill-rule:nonzero;fill:#001d61;fill-opacity:1;" d="M 335.117188 103.25 L 327.304688 103.25 L 327.304688 98.761719 C 327.304688 97.445312 326.238281 96.382812 324.921875 96.382812 L 315.15625 96.382812 L 315.15625 91.648438 C 315.15625 90.332031 314.089844 89.269531 312.773438 89.269531 L 187.5 89.269531 C 186.183594 89.269531 185.117188 90.332031 185.117188 91.648438 L 185.117188 182.65625 L 174.667969 174.597656 C 173.625 173.792969 172.132812 173.984375 171.328125 175.027344 C 170.527344 176.070312 170.71875 177.566406 171.761719 178.367188 L 180.515625 185.117188 L 136.632812 185.117188 L 136.632812 81.933594 C 136.632812 80.621094 135.566406 79.554688 134.25 79.554688 L 97.695312 79.554688 L 97.695312 39.882812 C 97.695312 38.566406 96.628906 37.5 95.316406 37.5 L 57.976562 37.5 L 57.976562 37.503906 C 57.367188 37.507812 56.769531 37.734375 56.316406 38.171875 L 38.222656 55.742188 C 37.75 56.203125 37.507812 56.820312 37.507812 57.453125 L 37.5 57.453125 L 37.5 123.988281 C 37.5 125.304688 38.566406 126.367188 39.882812 126.367188 L 95.316406 126.367188 C 96.628906 126.367188 97.695312 125.304688 97.695312 123.988281 L 97.695312 84.316406 L 131.867188 84.316406 L 131.867188 185.117188 L 97.695312 185.117188 L 97.695312 145.445312 C 97.695312 144.132812 96.628906 143.066406 95.316406 143.066406 L 57.976562 143.066406 L 57.976562 143.070312 C 57.367188 143.070312 56.769531 143.296875 56.316406 143.738281 L 38.222656 161.308594 C 37.75 161.765625 37.507812 162.386719 37.507812 163.019531 L 37.5 163.019531 L 37.5 229.554688 C 37.5 230.867188 38.566406 231.933594 39.882812 231.933594 L 95.316406 231.933594 C 96.628906 231.933594 97.695312 230.867188 97.695312 229.554688 L 97.695312 189.882812 L 131.867188 189.882812 L 131.867188 290.683594 L 97.695312 290.683594 L 97.695312 251.011719 C 97.695312 249.695312 96.628906 248.632812 95.316406 248.632812 L 57.976562 248.632812 L 57.976562 248.636719 C 57.367188 248.636719 56.769531 248.863281 56.316406 249.304688 L 38.222656 266.875 C 37.75 267.332031 37.507812 267.953125 37.507812 268.582031 L 37.5 268.582031 L 37.5 335.117188 C 37.5 336.433594 38.566406 337.5 39.882812 337.5 L 95.316406 337.5 C 96.628906 337.5 97.695312 336.433594 97.695312 335.117188 L 97.695312 295.445312 L 134.25 295.445312 C 135.566406 295.445312 136.632812 294.378906 136.632812 293.066406 L 136.632812 189.882812 L 180.515625 189.882812 L 171.761719 196.632812 C 170.71875 197.4375 170.527344 198.929688 171.328125 199.972656 C 171.796875 200.578125 172.503906 200.898438 173.214844 200.898438 C 173.722656 200.898438 174.234375 200.738281 174.667969 200.402344 L 185.117188 192.34375 L 185.117188 283.351562 C 185.117188 284.667969 186.183594 285.730469 187.5 285.730469 L 312.773438 285.730469 C 314.089844 285.730469 315.15625 284.667969 315.15625 283.351562 L 315.15625 278.617188 L 324.921875 278.617188 C 326.238281 278.617188 327.304688 277.554688 327.304688 276.238281 L 327.304688 271.75 L 335.117188 271.75 C 336.433594 271.75 337.5 270.683594 337.5 269.367188 L 337.5 105.632812 C 337.5 104.316406 336.433594 103.25 335.117188 103.25 Z M 92.933594 121.605469 L 42.261719 121.605469 L 42.261719 59.832031 L 57.976562 59.832031 C 59.292969 59.832031 60.355469 58.765625 60.355469 57.453125 L 60.355469 42.261719 L 92.933594 42.261719 Z M 92.933594 227.171875 L 42.261719 227.171875 L 42.261719 165.398438 L 57.976562 165.398438 C 59.292969 165.398438 60.355469 164.332031 60.355469 163.019531 L 60.355469 147.828125 L 92.933594 147.828125 Z M 92.933594 332.738281 L 42.261719 332.738281 L 42.261719 270.964844 L 57.976562 270.964844 C 59.292969 270.964844 60.355469 269.898438 60.355469 268.582031 L 60.355469 253.394531 L 92.933594 253.394531 Z M 310.394531 280.96875 L 189.882812 280.96875 L 189.882812 94.03125 L 310.394531 94.03125 Z M 332.738281 266.988281 L 327.304688 266.988281 L 327.304688 108.011719 L 332.738281 108.011719 Z M 332.738281 266.988281 "/></g></g></svg>