<svg xmlns="http://www.w3.org/2000/svg" xmlns:xlink="http://www.w3.org/1999/xlink" width="500" zoomAndPan="magnify" viewBox="0 0 375 374.999991" height="500" preserveAspectRatio="xMidYMid meet" version="1.2"><g id="911ffd2fe9"><path style=" stroke:none;fill-rule:evenodd;fill:#001d61;fill-opacity:1;" d="M 187.5 166.203125 C 175.75 166.203125 166.203125 175.75 166.203125 187.5 C 166.203125 199.25 175.75 208.796875 187.5 208.796875 C 199.25 208.796875 208.796875 199.25 208.796875 187.5 C 208.796875 175.75 199.25 166.203125 187.5 166.203125 "/><path style=" stroke:none;fill-rule:evenodd;fill:#001d61;fill-opacity:1;" d="M 82.089844 82.089844 C 54.113281 110.042969 38.410156 147.960938 38.410156 187.5 C 38.410156 227.039062 54.113281 264.957031 82.089844 292.910156 C 86.226562 297.09375 92.988281 297.09375 97.125 292.910156 C 101.285156 288.773438 101.285156 282.011719 97.125 277.875 C 73.164062 253.890625 59.707031 221.382812 59.707031 187.5 C 59.707031 153.617188 73.164062 121.109375 97.125 97.125 C 101.285156 92.988281 101.285156 86.226562 97.125 82.089844 C 92.988281 77.90625 86.226562 77.90625 82.089844 82.089844 "/><path style=" stroke:none;fill-rule:evenodd;fill:#001d61;fill-opacity:1;" d="M 112.207031 112.207031 C 92.21875 132.171875 81.007812 159.253906 81.007812 187.5 C 81.007812 215.746094 92.21875 242.828125 112.207031 262.792969 C 116.34375 266.953125 123.105469 266.953125 127.265625 262.792969 C 131.425781 258.65625 131.425781 251.894531 127.265625 247.734375 C 111.292969 231.761719 102.304688 210.089844 102.304688 187.5 C 102.304688 164.910156 111.292969 143.238281 127.265625 127.265625 C 131.425781 123.105469 131.425781 116.34375 127.265625 112.207031 C 123.105469 108.046875 116.34375 108.046875 112.207031 112.207031 "/><path style=" stroke:none;fill-rule:evenodd;fill:#001d61;fill-opacity:1;" d="M 142.324219 142.324219 C 130.34375 154.304688 123.605469 170.546875 123.605469 187.5 C 123.605469 204.453125 130.34375 220.695312 142.324219 232.675781 C 146.460938 236.835938 153.222656 236.835938 157.382812 232.675781 C 161.542969 228.539062 161.542969 221.777344 157.382812 217.617188 C 149.394531 209.628906 144.902344 198.792969 144.902344 187.5 C 144.902344 176.207031 149.394531 165.371094 157.382812 157.382812 C 161.542969 153.222656 161.542969 146.460938 157.382812 142.324219 C 153.222656 138.164062 146.460938 138.164062 142.324219 142.324219 "/><path style=" stroke:none;fill-rule:evenodd;fill:#001d61;fill-opacity:1;" d="M 277.875 97.125 C 301.835938 121.109375 315.292969 153.617188 315.292969 187.5 C 315.292969 221.382812 301.835938 253.890625 277.875 277.875 C 273.714844 282.011719 273.714844 288.773438 277.875 292.910156 C 282.011719 297.09375 288.773438 297.09375 292.910156 292.910156 C 320.886719 264.957031 336.589844 227.039062 336.589844 187.5 C 336.589844 147.960938 320.886719 110.042969 292.910156 82.089844 C 288.773438 77.90625 282.011719 77.90625 277.875 82.089844 C 273.714844 86.226562 273.714844 92.988281 277.875 97.125 "/><path style=" stroke:none;fill-rule:evenodd;fill:#001d61;fill-opacity:1;" d="M 247.734375 127.265625 C 263.707031 143.238281 272.695312 164.910156 272.695312 187.5 C 272.695312 210.089844 263.707031 231.761719 247.734375 247.734375 C 243.574219 251.894531 243.574219 258.65625 247.734375 262.792969 C 251.894531 266.953125 258.65625 266.953125 262.792969 262.792969 C 282.78125 242.828125 293.992188 215.746094 293.992188 187.5 C 293.992188 159.253906 282.78125 132.171875 262.792969 112.207031 C 258.65625 108.046875 251.894531 108.046875 247.734375 112.207031 C 243.574219 116.34375 243.574219 123.105469 247.734375 127.265625 "/><path style=" stroke:none;fill-rule:evenodd;fill:#001d61;fill-opacity:1;" d="M 217.617188 157.382812 C 225.605469 165.371094 230.097656 176.207031 230.097656 187.5 C 230.097656 198.792969 225.605469 209.628906 217.617188 217.617188 C 213.457031 221.777344 213.457031 228.539062 217.617188 232.675781 C 221.777344 236.835938 228.539062 236.835938 232.675781 232.675781 C 244.65625 220.695312 251.394531 204.453125 251.394531 187.5 C 251.394531 170.546875 244.65625 154.304688 232.675781 142.324219 C 228.539062 138.164062 221.777344 138.164062 217.617188 142.324219 C 213.457031 146.460938 213.457031 153.222656 217.617188 157.382812 "/></g></svg>